<svg xmlns="http://www.w3.org/2000/svg" width="128" height="152" viewBox="0 0 128 152">
  <path fill="#9DAABE" d="M127.083,18.388 C126.753,18.055 126.294,17.867 125.825,17.867 L118.709,17.867 L118.704,17.867 L103.864,17.867 L103.864,13.104 C103.864,12.636 103.675,12.176 103.343,11.844 C103.012,11.512 102.553,11.323 102.084,11.323 L93.167,11.323 L93.167,11.325 C90.638,11.289 88.995,9.884 88.329,7.657 C87.426,4.355 85.612,2.261 83.63,1.195 C81.655,0.117 79.673,0.003 78.345,0 C77.015,0.003 75.031,0.117 73.06,1.195 C71.076,2.26 69.261,4.355 68.358,7.657 C67.693,9.884 66.05,11.289 63.519,11.325 C60.335,11.323 54.613,11.323 54.605,11.323 C54.134,11.323 53.677,11.512 53.344,11.844 C53.013,12.176 52.822,12.634 52.822,13.104 L52.822,17.867 L30.863,17.867 C30.394,17.867 29.935,18.055 29.603,18.388 C29.273,18.719 29.082,19.179 29.082,19.647 L29.082,49.144 C12.607,51.712 0.002,65.96 0,83.153 C0.002,100.346 12.607,114.593 29.082,117.161 L29.082,150.22 C29.082,150.695 29.268,151.143 29.603,151.479 C29.941,151.816 30.386,152 30.863,152 L125.826,152 C126.301,152 126.748,151.816 127.084,151.479 C127.42,151.143 127.605,150.695 127.605,150.22 L127.605,19.646 C127.604,19.179 127.416,18.719 127.083,18.388 Z M56.383,19.652 L56.384,19.646 C56.384,19.643 56.383,19.642 56.383,19.642 L56.383,14.882 C56.825,14.882 57.329,14.884 57.866,14.885 C59.698,14.882 61.928,14.882 63.518,14.885 C67.592,14.917 70.823,12.215 71.788,8.614 C72.528,6.042 73.634,4.959 74.768,4.316 C75.913,3.683 77.247,3.556 78.344,3.561 C79.44,3.556 80.772,3.683 81.916,4.316 C83.051,4.959 84.158,6.042 84.898,8.614 C85.863,12.217 89.093,14.918 93.166,14.883 L93.166,14.886 C95.225,14.883 98.352,14.883 100.302,14.883 L100.302,27.434 L56.382,27.434 L56.382,19.652 L56.383,19.652 Z M39.764,21.428 L52.822,21.428 L52.822,29.213 C52.822,29.684 53.013,30.141 53.344,30.473 C53.677,30.805 54.134,30.994 54.605,30.994 L102.084,30.994 C102.56,30.994 103.007,30.811 103.343,30.473 C103.679,30.137 103.864,29.69 103.864,29.213 L103.864,21.428 L116.923,21.428 L116.923,98.584 L92.587,98.584 C92.119,98.584 91.659,98.773 91.328,99.105 C90.997,99.435 90.807,99.894 90.807,100.365 L90.807,124.104 L39.763,124.104 L39.763,117.16 C55.085,114.773 67.062,102.282 68.662,86.714 L102.676,86.714 C103.334,86.714 103.864,86.183 103.864,85.525 C103.864,84.871 103.335,84.339 102.676,84.339 L68.816,84.339 C68.83,83.944 68.846,83.55 68.846,83.151 C68.846,81.539 68.727,79.956 68.512,78.403 L102.676,78.403 C103.332,78.403 103.864,77.872 103.864,77.215 C103.864,76.558 103.333,76.028 102.676,76.028 L68.104,76.028 C67.672,73.976 67.055,71.993 66.276,70.093 L102.676,70.093 C103.334,70.093 103.864,69.562 103.864,68.905 C103.864,68.248 103.335,67.717 102.676,67.717 L65.192,67.717 C64.129,65.605 62.858,63.619 61.403,61.783 L102.676,61.783 C103.332,61.783 103.864,61.25 103.864,60.595 C103.864,59.939 103.333,59.407 102.676,59.407 L59.335,59.407 C54.228,54.049 47.416,50.331 39.763,49.138 L39.763,21.428 L39.764,21.428 Z M114.206,102.145 L108.784,107.567 L94.367,121.657 L94.368,102.145 L114.206,102.145 L114.206,102.145 Z M32.641,21.428 L36.204,21.428 L36.204,48.775 C35.614,48.745 35.02,48.729 34.423,48.729 C33.826,48.729 33.232,48.745 32.642,48.775 L32.642,21.428 L32.641,21.428 Z M12.6,104.975 C7.012,99.384 3.561,91.679 3.559,83.153 C3.561,74.627 7.012,66.921 12.6,61.331 C18.191,55.741 25.895,52.293 34.422,52.29 C42.951,52.293 50.654,55.741 56.246,61.331 C61.832,66.921 65.285,74.627 65.285,83.153 C65.285,91.679 61.832,99.384 56.246,104.975 C50.654,110.563 42.951,114.014 34.422,114.014 C25.895,114.014 18.191,110.563 12.6,104.975 Z M124.044,148.438 L32.641,148.438 L32.641,117.53 C33.231,117.56 33.825,117.575 34.422,117.575 C35.019,117.575 35.613,117.559 36.203,117.53 L36.203,125.886 C36.203,126.354 36.392,126.813 36.724,127.144 C37.056,127.476 37.515,127.667 37.982,127.667 L92.982,127.667 C93.451,127.667 93.91,127.476 94.242,127.144 L111.287,110.1 L119.945,101.639 C120.33,101.262 120.513,100.748 120.475,100.232 C120.476,100.21 120.482,100.189 120.482,100.167 L120.482,21.428 L124.043,21.428 L124.043,148.438 L124.044,148.438 Z M54.011,45.169 L102.678,45.169 C103.335,45.169 103.865,44.637 103.865,43.981 C103.865,43.325 103.336,42.794 102.678,42.794 L54.011,42.794 C53.355,42.794 52.822,43.324 52.822,43.981 C52.822,44.638 53.354,45.169 54.011,45.169 Z M103.864,52.289 C103.864,51.635 103.333,51.101 102.676,51.101 L54.011,51.101 C53.353,51.101 52.823,51.634 52.823,52.289 C52.823,52.945 53.352,53.478 54.011,53.478 L102.677,53.478 C103.333,53.479 103.864,52.945 103.864,52.289 Z M78.343,4.807 C75.392,4.81 73.003,7.2 73.001,10.153 C73.003,13.101 75.392,15.492 78.343,15.492 C81.294,15.492 83.684,13.101 83.685,10.153 C83.683,7.199 81.294,4.81 78.343,4.807 Z M78.343,13.118 C76.704,13.113 75.378,11.789 75.376,10.152 C75.378,8.511 76.704,7.185 78.343,7.183 C79.984,7.185 81.309,8.511 81.312,10.152 C81.308,11.789 79.983,13.113 78.343,13.118 Z M34.423,62.306 C35.079,62.306 35.611,61.774 35.611,61.119 L35.611,59.487 C35.611,58.83 35.08,58.299 34.423,58.299 C33.766,58.299 33.235,58.83 33.235,59.487 L33.235,61.119 C33.235,61.773 33.766,62.306 34.423,62.306 Z M35.611,106.819 L35.611,105.186 C35.611,104.53 35.079,103.998 34.424,103.998 C33.766,103.998 33.236,104.529 33.236,105.186 L33.236,106.819 C33.236,107.474 33.765,108.007 34.424,108.007 C35.079,108.007 35.611,107.475 35.611,106.819 Z M18.893,69.303 C19.125,69.533 19.43,69.651 19.733,69.651 C20.038,69.651 20.34,69.534 20.571,69.303 C21.036,68.839 21.036,68.086 20.571,67.623 L18.528,65.577 C18.065,65.115 17.312,65.115 16.848,65.577 C16.385,66.041 16.385,66.793 16.848,67.258 L18.893,69.303 Z M49.952,97.003 C49.489,96.538 48.737,96.538 48.274,97.003 C47.809,97.466 47.809,98.217 48.274,98.681 L50.319,100.727 C50.549,100.959 50.853,101.075 51.157,101.075 C51.462,101.075 51.764,100.96 51.997,100.727 C52.46,100.263 52.46,99.512 51.997,99.047 L49.952,97.003 Z M12.389,81.965 L10.756,81.965 C10.1,81.965 9.568,82.496 9.568,83.153 C9.568,83.81 10.099,84.341 10.756,84.341 L12.389,84.341 C13.044,84.341 13.575,83.81 13.575,83.153 C13.575,82.496 13.045,81.965 12.389,81.965 Z M56.457,84.34 L58.09,84.34 C58.745,84.34 59.278,83.809 59.278,83.152 C59.278,82.495 58.746,81.964 58.09,81.964 L56.457,81.964 C55.802,81.964 55.27,82.495 55.27,83.152 C55.27,83.809 55.802,84.34 56.457,84.34 Z M18.895,97.002 L16.849,99.047 C16.385,99.512 16.385,100.264 16.849,100.727 C17.08,100.959 17.384,101.075 17.688,101.075 C17.991,101.075 18.295,100.96 18.528,100.727 L20.573,98.682 C21.037,98.217 21.037,97.467 20.573,97.002 C20.109,96.54 19.358,96.54 18.895,97.002 Z M49.112,69.65 C49.417,69.65 49.719,69.533 49.952,69.301 L51.997,67.255 C52.46,66.792 52.46,66.041 51.997,65.576 C51.534,65.113 50.782,65.114 50.317,65.576 L48.274,67.623 C47.81,68.087 47.81,68.839 48.274,69.301 C48.505,69.533 48.809,69.65 49.112,69.65 Z M48.297,84.934 C49.28,84.934 50.077,84.137 50.077,83.153 C50.077,82.171 49.28,81.372 48.297,81.372 L36.204,81.372 L36.204,69.279 C36.204,68.297 35.407,67.498 34.423,67.498 C33.439,67.498 32.644,68.297 32.644,69.279 L32.644,83.152 C32.644,84.136 33.439,84.933 34.423,84.933 L48.297,84.933 L48.297,84.934 Z"/>
</svg>
