<svg xmlns="http://www.w3.org/2000/svg" width="147" height="153" viewBox="0 0 147 153">
  <defs>
    <linearGradient id="a" x1="0%" x2="99.999%" y1="50%" y2="50%">
      <stop stop-color="#009EAE" offset="0%"/>
      <stop stop-color="#0076B0" offset="100%"/>
    </linearGradient>
  </defs>
  <g fill="none" fill-rule="evenodd">
    <path fill="url(#a)" fill-rule="nonzero" d="M94.91,137.707007 C94.578,137.375007 94.118,137.185007 93.652,137.185007 L88.156,137.185007 L88.156,129.870007 C88.156,129.402007 87.966,128.944007 87.634,128.611007 C87.302,128.282007 86.843,128.090007 86.375,128.090007 L72.35,128.090007 L72.35,50.3490072 L72.35,50.3440072 L72.35,49.1680072 L123.706,49.1690072 L123.706,59.2180072 L106.426,59.2180072 C105.957,59.2180072 105.498,59.4070072 105.167,59.7390072 C104.835,60.0720072 104.646,60.5290072 104.646,61.0010072 L104.646,70.0960072 C104.646,70.5650072 104.836,71.0240072 105.167,71.3550072 C105.498,71.6870072 105.957,71.8770072 106.426,71.8770072 L144.629,71.8770072 C145.098,71.8770072 145.558,71.6870072 145.889,71.3550072 C146.219,71.0240072 146.41,70.5650072 146.41,70.0960072 L146.41,61.0010072 C146.41,60.5310072 146.219,60.0720072 145.889,59.7390072 C145.558,59.4090072 145.098,59.2180072 144.629,59.2180072 L127.266,59.2180072 L127.266,49.1690072 L144.586,49.1700072 C145.345,49.1700072 146.02,48.6890072 146.268,47.9750072 C146.518,47.2590072 146.287,46.4650072 145.691,45.9940072 L118.858,24.7310072 C118.543,24.4800072 118.157,24.3470072 117.753,24.3470072 L71.731,24.3470072 L61.488,1.06300718 C61.202,0.41400718 60.561,-0.00199282043 59.852,7.17956858e-06 C59.143,0.00200717957 58.505,0.42200718 58.223,1.07300718 L48.137,24.3470072 L16.902,24.3470072 C16.434,24.3470072 15.976,24.5360072 15.644,24.8680072 L0.75,39.7620072 C0.418,40.0930072 0.229,40.5510072 0.229,41.0210072 L0.229,47.3880072 C0.229,47.8570072 0.418,48.3170072 0.75,48.6480072 C1.081,48.9790072 1.539,49.1690072 2.009,49.1690072 L17.284,49.1690072 L17.284,58.9590072 L1.781,58.9590072 C1.312,58.9590072 0.853,59.1490072 0.521,59.4800072 C0.191,59.8150072 0,60.2720072 0,60.7400072 L0,69.8370072 C0,70.3060072 0.191,70.7660072 0.521,71.0970072 C0.853,71.4280072 1.312,71.6190072 1.781,71.6190072 L36.346,71.6190072 C36.815,71.6190072 37.274,71.4280072 37.604,71.0970072 C37.936,70.7660072 38.126,70.3060072 38.126,69.8370072 L38.126,60.7400072 C38.126,60.2730072 37.936,59.8150072 37.604,59.4810072 C37.274,59.1500072 36.815,58.9600072 36.346,58.9600072 L20.845,58.9600072 L20.845,49.1700072 L47.527,49.1700072 L47.527,128.090007 L33.618,128.090007 C33.149,128.090007 32.69,128.279007 32.358,128.611007 C32.025,128.944007 31.836,129.402007 31.836,129.870007 L31.836,137.185007 L26.341,137.185007 C25.871,137.185007 25.413,137.375007 25.081,137.707007 C24.75,138.039007 24.56,138.496007 24.56,138.966007 L24.56,150.219007 C24.56,151.201007 25.357,151.998007 26.341,151.998007 C27.325,151.998007 28.122,151.201007 28.122,150.219007 L28.122,140.747007 L91.87,140.747007 L91.87,150.219007 C91.87,151.201007 92.668,151.998007 93.651,151.998007 C94.633,151.998007 95.432,151.201007 95.432,150.219007 L95.43,138.966007 C95.431,138.496007 95.242,138.039007 94.91,137.707007 Z M142.85,62.7800072 L142.85,68.3130072 L108.208,68.3130072 L108.208,62.7800072 L142.85,62.7800072 Z M72.35,27.9070072 L117.136,27.9070072 L139.475,45.6090072 L72.35,45.6090072 L72.35,27.9070072 Z M59.87,6.22900718 L63.047,13.4500072 L53.145,21.7490072 L59.87,6.22900718 Z M63.793,15.1470072 L68.232,25.2370072 L51.756,25.2370072 L63.793,15.1470072 Z M68.789,28.7720072 L68.789,42.9280072 L51.84,42.9280072 L68.789,28.7720072 Z M51.088,27.0160072 L68.115,27.0160072 L51.088,41.2350072 L51.088,27.0160072 Z M51.087,48.3780072 L51.087,48.3730072 L51.087,44.7080072 L68.788,44.7080072 L68.788,45.0780072 L51.086,62.7810072 L51.086,48.3780072 L51.087,48.3780072 Z M68.788,47.5970072 L68.788,64.9270072 L51.457,64.9270072 L68.788,47.5970072 Z M51.087,66.7090072 L68.418,66.7090072 L51.087,84.0410072 L51.087,66.7090072 Z M68.788,68.8590072 L68.788,86.1900072 L51.457,86.1900072 L68.788,68.8590072 Z M51.087,87.9710072 L68.42,87.9710072 L51.087,105.305007 L51.087,87.9710072 Z M68.788,90.1200072 L68.788,107.452007 L51.457,107.452007 L68.788,90.1200072 Z M51.087,109.233007 L68.42,109.233007 L51.087,126.567007 L51.087,109.233007 Z M68.788,111.383007 L68.788,127.824007 L52.347,127.824007 L68.788,111.383007 Z M34.566,62.5210072 L34.566,68.0560072 L3.562,68.0560072 L3.562,62.5210072 L34.566,62.5210072 Z M3.788,45.6090072 L3.788,41.7580072 L17.641,27.9060072 L47.528,27.9060072 L47.528,45.6080072 L3.788,45.6080072 L3.788,45.6090072 Z M84.593,137.185007 L35.399,137.185007 L35.399,131.651007 L84.593,131.651007 L84.593,137.185007 Z M146.411,89.0860072 L140.953,89.0860072 L140.953,103.324007 C140.953,104.329007 140.139,105.142007 139.134,105.142007 L130.039,105.142007 C129.035,105.142007 128.221,104.329007 128.221,103.324007 L128.221,89.0860072 L122.763,89.0860072 L122.763,103.324007 C122.763,104.329007 121.949,105.142007 120.945,105.142007 L111.848,105.142007 C110.844,105.142007 110.03,104.329007 110.03,103.324007 L110.03,89.0860072 L104.571,89.0860072 L104.571,150.068007 C104.571,151.074007 105.386,151.887007 106.391,151.887007 L144.594,151.887007 C145.599,151.887007 146.413,151.074007 146.413,150.068007 L146.411,89.0860072 Z M122.762,145.166007 C122.762,146.171007 121.948,146.984007 120.944,146.984007 L111.847,146.984007 C110.843,146.984007 110.029,146.171007 110.029,145.166007 L110.029,131.521007 C110.029,130.517007 110.843,129.703007 111.847,129.703007 L120.944,129.703007 C121.948,129.703007 122.762,130.517007 122.762,131.521007 L122.762,145.166007 Z M122.762,124.246007 C122.762,125.251007 121.948,126.065007 120.944,126.065007 L111.847,126.065007 C110.843,126.065007 110.029,125.251007 110.029,124.246007 L110.029,110.602007 C110.029,109.596007 110.843,108.783007 111.847,108.783007 L120.944,108.783007 C121.948,108.783007 122.762,109.596007 122.762,110.602007 L122.762,124.246007 Z M140.953,145.166007 C140.953,146.171007 140.139,146.984007 139.134,146.984007 L130.039,146.984007 C129.035,146.984007 128.221,146.171007 128.221,145.166007 L128.221,131.521007 C128.221,130.517007 129.035,129.703007 130.039,129.703007 L139.134,129.703007 C140.139,129.703007 140.953,130.517007 140.953,131.521007 L140.953,145.166007 Z M140.953,124.246007 C140.953,125.251007 140.139,126.065007 139.134,126.065007 L130.039,126.065007 C129.035,126.065007 128.221,125.251007 128.221,124.246007 L128.221,110.602007 C128.221,109.596007 129.035,108.783007 130.039,108.783007 L139.134,108.783007 C140.139,108.783007 140.953,109.596007 140.953,110.602007 L140.953,124.246007 Z M37.604,85.6490072 C37.937,85.3180072 38.127,84.8590072 38.127,84.3900072 L38.127,75.2930072 C38.127,74.8240072 37.937,74.3660072 37.604,74.0360072 C37.273,73.7030072 36.815,73.5130072 36.346,73.5130072 L1.781,73.5130072 C1.313,73.5130072 0.854,73.7030072 0.522,74.0360072 C0.19,74.3670072 0,74.8250072 0,75.2930072 L0,84.3900072 C0,84.8600072 0.19,85.3180072 0.522,85.6490072 C0.853,85.9810072 1.312,86.1710072 1.78,86.1710072 L36.346,86.1710072 C36.815,86.1710072 37.273,85.9810072 37.604,85.6490072 Z M34.566,82.6090072 L3.562,82.6090072 L3.562,77.0750072 L34.567,77.0750072 L34.567,82.6090072 L34.566,82.6090072 Z"/>
  </g>
</svg>
