<svg xmlns="http://www.w3.org/2000/svg" width="164" height="153" viewBox="0 0 164 153">
  <path fill="#9DAABE" d="M60.4919635,93.6429434 L47.0283386,93.6429434 C45.8763936,93.6429434 44.9439177,94.5743487 44.9439177,95.7262937 C44.9439177,96.8782387 45.8763936,97.8139264 47.0283386,97.8139264 L60.4919635,97.8139264 C61.6417674,97.8139264 62.5763845,96.8782387 62.5763845,95.7262937 C62.5763845,94.5743487 61.6417674,93.6429434 60.4919635,93.6429434 Z M125.095095,75.5619032 L110.828534,75.5619032 C106.455212,75.5619032 102.257464,76.3080981 98.3455616,77.6623828 C98.9311693,75.0962005 99.3283548,72.5781943 99.5981412,70.2421869 L104.88574,70.2421869 C105.434948,70.2421869 105.97345,70.0184355 106.35993,69.6308852 C106.748551,69.2411938 106.972302,68.7059034 106.972302,68.1545542 L106.972302,57.7924021 C106.972302,57.2410529 106.748551,56.7046919 106.35993,56.3192828 C105.97345,55.9295914 105.434948,55.7079811 104.88574,55.7079811 L100.133432,55.7079811 C100.137714,55.3793128 100.139855,55.0281623 100.139855,54.6374003 C100.139855,52.8302598 100.077761,50.3839825 99.8368807,47.5779901 L99.8261749,47.159393 L99.8261749,47.1572518 L99.8240338,47.093017 C99.8240338,47.0287821 99.8026222,46.9699002 99.7972693,46.9056653 C99.7887046,46.8478539 99.7833517,46.7879014 99.7705047,46.7311606 C99.7597989,46.6733493 99.7597989,46.6133967 99.7448108,46.5587971 C99.0221687,39.3730584 97.1796991,30.1307338 92.1137104,22.983536 C89.9875368,19.9998271 87.4866599,17.5396323 84.8219842,15.5044581 L84.8219842,14.0613151 C84.7491847,10.0841072 81.880028,6.64433088 78.0013135,5.75146644 L77.5666577,7.7898524 L77.9991724,5.74932528 L76.9864029,5.53520911 C76.4821593,5.42600986 75.9747039,5.3735514 75.4736721,5.3735514 C73.8003542,5.36712791 72.2030476,6.00305294 71.0725142,7.15071563 C70.7481282,7.47724279 70.4697772,7.84231086 70.2299671,8.23628462 C68.620884,7.74917033 67.0546242,7.35198483 65.5707991,7.03188115 L65.4487529,7.00939895 C65.2806717,6.98370501 65.1275787,6.96015223 64.9830503,6.93767004 C64.7989103,3.09000242 61.6342733,0.0270705809 57.7437825,0.026 L49.780802,0.026 C45.9609695,0.0270705809 42.8391557,2.97759143 42.5522401,6.72462444 L41.3564012,7.04365754 C39.8490234,7.3701847 38.2570697,7.77807601 36.6201515,8.27589611 C36.3749885,7.8680048 36.0912846,7.4879486 35.7561928,7.15285679 C34.6224476,6.00305294 33.0272821,5.36712791 31.3528937,5.3735514 C30.8582853,5.3735514 30.3454771,5.42600986 29.8283865,5.53627969 L29.8283865,5.53842085 L28.828464,5.74932528 C24.9454672,6.64433088 22.0763105,10.0841072 22.003511,14.0613151 L22.003511,15.6190102 C19.3977172,17.634914 16.9535811,20.0565679 14.867019,22.983536 C9.80210096,30.1307338 7.9596313,39.3730584 7.23484805,46.5587971 C7.18667192,46.7290195 7.15883681,46.9067359 7.15348391,47.0919464 L7.1427781,47.5747783 C6.90082683,50.3839825 6.83766256,52.8291892 6.83766256,54.6374003 C6.83766256,55.0281623 6.83980372,55.3793128 6.8462272,55.7079811 L2.63242094,55.7079811 C2.08428353,55.7079811 1.54685194,55.9295914 1.16037225,56.3160711 C0.7717514,56.7046919 0.548,57.2410529 0.548,57.7924021 L0.548,68.1545542 C0.548,68.7059034 0.7717514,69.2411938 1.16037225,69.6308852 C1.54685194,70.0184355 2.08428353,70.2421869 2.63242094,70.2421869 L7.92001981,70.2421869 C8.72295545,77.1784803 10.6189542,85.7024451 15.3616274,92.3946461 C21.421115,100.883282 30.3722416,105.150617 38.0194007,107.327108 C45.6804773,109.504669 52.1296564,109.619222 53.5235527,109.621363 L53.9935377,109.621363 C55.387434,109.619222 61.8344719,109.50574 69.4976897,107.327108 C70.7770339,106.96311 72.0938483,106.530596 73.4267215,106.037058 C72.9160544,108.527229 72.6462681,111.103047 72.6462681,113.742028 C72.6462681,115.981684 72.8432549,118.176374 73.2147465,120.310042 C69.5469365,119.989938 65.6371752,118.50076 62.5753139,116.956983 C60.8377612,116.087671 59.3678536,115.210865 58.3411666,114.562093 C57.8272878,114.233425 57.42582,113.963639 57.1538924,113.779499 C56.8862472,113.592147 56.7631304,113.502218 56.7631304,113.502218 C56.056547,112.985128 55.1026595,112.961575 54.3757351,113.447619 C53.6455989,113.931521 53.2987307,114.820103 53.5010705,115.670145 C53.5545996,115.877837 54.6915564,120.513452 59.0081385,125.827816 C63.2337211,131.042615 70.5821882,136.855869 82.6722578,139.562298 C85.3733333,142.522454 88.5315469,145.05866 92.035558,147.055293 C97.5779551,150.214577 104.00144,152.026 110.827464,152.026 L125.094024,152.026 C146.18982,152.019577 163.273079,134.826048 163.27522,113.742028 C163.27415,92.6558678 146.182326,75.5640444 125.095095,75.5619032 Z M84.8209136,42.1372981 L84.8209136,33.6647212 L84.8219842,20.9601381 C86.2276569,22.2780232 87.5369772,23.7511425 88.7167574,25.4041193 C92.6490009,30.8876345 94.5364349,38.4502177 95.3564998,44.875844 C92.8984462,44.5482462 88.9190971,43.8074043 84.8155607,42.2786148 C84.8166313,42.2336504 84.8209136,42.1844037 84.8209136,42.1372981 Z M73.4684742,11.6492964 C73.4684742,11.5882733 73.47918,11.5422383 73.4834623,11.4865681 C73.4898858,11.3870041 73.4920269,11.2917224 73.5112974,11.1750291 C73.5145091,11.1578998 73.512368,11.1429117 73.5145091,11.1268529 C73.6001556,10.6622208 73.790719,10.3367643 74.0305291,10.0883895 C74.3591974,9.76507409 74.8088414,9.54881675 75.4715309,9.54346385 C75.6685178,9.54346385 75.8837046,9.56594605 76.1181618,9.61412219 L77.1309313,9.83037952 C78.9616246,10.1504832 80.7238006,12.3237623 80.6510011,14.0613151 L80.6510011,16.5247216 C80.6510011,16.5247216 80.64886,16.5397098 80.64886,16.5472038 L80.64886,40.434004 C78.7753435,39.4490696 76.9789088,38.2682189 75.3901668,36.8614757 C75.3783904,36.8518404 75.366614,36.8400641 75.3537671,36.8293582 C75.3355672,36.8143701 75.320579,36.7983114 75.3034497,36.7822527 C74.9929813,36.5039017 74.6900069,36.2116331 74.3945266,35.9011646 C74.3816796,35.8893882 74.3720444,35.8765413 74.3591974,35.8636943 C74.0583642,35.5435906 73.7628839,35.2095694 73.47918,34.86056 C73.4748976,34.8552071 73.4716859,34.8509248 73.4684742,34.8466425 L73.4684742,11.6492964 Z M69.2974911,12.311986 L69.2974911,27.4061055 C68.3521682,25.0251337 67.6188203,22.5403155 67.0696124,20.1882493 C66.3576761,17.1906229 65.9187379,14.4306655 65.6136224,12.385856 C65.5547404,11.9897411 65.502282,11.6289554 65.4530353,11.2885107 C66.6938385,11.5722146 67.9774649,11.9040946 69.2974911,12.311986 Z M46.6911057,7.28453823 C46.695388,5.57910292 48.0753667,4.20233594 49.7797315,4.19698303 L57.7427119,4.19698303 C59.4470766,4.20233594 60.822773,5.57910292 60.8270554,7.28453823 L60.8270554,34.6635732 C60.8259848,35.5157555 60.4801872,36.2865737 59.9213439,36.8432758 C59.3635713,37.402119 58.5938237,37.7479166 57.7427119,37.7489872 L49.7797315,37.7489872 C48.4104585,37.7479166 47.2638664,36.8496993 46.8581163,35.6163901 C46.7596228,35.3155569 46.6932468,34.9997356 46.6911057,34.6646437 L46.6911057,8.33370748 L46.6911057,8.33049574 L46.6911057,7.28453823 Z M37.5290747,12.3580209 C39.0600053,11.8794713 40.5470421,11.4994151 41.9719852,11.1846643 C41.8445861,12.0100822 41.7032694,12.981099 41.5234119,14.0912913 C40.8971221,18.1755573 39.7162714,23.9277883 37.5290747,28.9338244 L37.5290747,12.3580209 Z M26.1744941,14.0623857 C26.1016946,12.3248329 27.8617295,10.1515538 29.6934933,9.8314501 L30.7041217,9.61733393 L30.2705364,7.57573623 L30.7158981,9.61305161 C30.9375083,9.56594605 31.1484127,9.54453443 31.3518231,9.54453443 C32.0145127,9.54988734 32.4641566,9.76614467 32.7928249,10.0905307 C33.0390585,10.3431878 33.2317631,10.684703 33.3152684,11.167535 L33.3152684,11.1964407 C33.3174096,11.2039348 33.3174096,11.2092877 33.3174096,11.2157112 C33.3398918,11.3516749 33.3548799,11.491921 33.3570211,11.650367 L33.3570211,35.6442252 C33.2071397,35.8101653 33.0540467,35.9686112 32.8988124,36.124916 C32.6739905,36.3508086 32.4491685,36.5788423 32.2125701,36.7876056 C32.1954408,36.8015231 32.1815233,36.8165113 32.164394,36.8314994 C32.1408412,36.8539816 32.1130061,36.8711109 32.0883827,36.8946637 C31.6301741,37.2993432 31.1537656,37.6826112 30.6634396,38.0487498 C30.4482529,38.2114781 30.2245015,38.3592183 30.0050324,38.5133819 C29.689211,38.7349922 29.3733897,38.9555318 29.0490037,39.1610834 C28.8027701,39.3184587 28.5490424,39.4683401 28.2974559,39.619292 C27.9848463,39.805573 27.6690249,39.9886424 27.3489213,40.1642176 C27.0919819,40.3044637 26.8350424,40.4414981 26.5748913,40.5753207 C26.4410687,40.6427673 26.3072461,40.704861 26.1734235,40.7723076 L26.1734235,14.0623857 L26.1744941,14.0623857 Z M25.8522492,45.5106984 C26.1562942,45.3832993 26.4571274,45.2516179 26.7633135,45.1156541 C26.9057008,45.0503487 27.048088,44.9850432 27.1915459,44.9175966 C28.8809225,44.1317903 30.5638756,43.2003849 32.1740292,42.0923338 C33.1172109,41.4457029 34.0346987,40.7423313 34.9115045,39.9693719 C34.9200691,39.9608073 34.9286338,39.9565249 34.9350572,39.9501015 C34.9425513,39.9415368 34.9500454,39.9329722 34.95861,39.9265487 C35.1288324,39.772385 35.2872783,39.6085862 35.4521478,39.4501402 C35.6951697,39.2167536 35.9381915,38.9844375 36.1672958,38.7414157 C36.2700716,38.633287 36.3664239,38.520876 36.4649173,38.408465 C36.6576218,38.19649 36.8556793,37.9855856 37.0408898,37.7661165 C37.0740778,37.7254344 37.1008423,37.6772583 37.1308186,37.6355056 C39.5524725,34.7106787 41.2686136,31.2098793 42.5190521,27.6748213 L42.5190521,34.6625026 C42.5201226,35.3990622 42.631463,36.1109985 42.8370146,36.7801115 C43.047919,37.4770597 43.3615992,38.1311846 43.7609259,38.7210746 C44.1977228,39.3698466 44.7437191,39.9393956 45.3625148,40.4147335 C46.5861887,41.3557741 48.1139076,41.9199702 49.7765197,41.9221114 L57.7405707,41.9221114 C59.3357362,41.9199702 60.8056437,41.3996679 62.0025531,40.5271445 C62.6855837,40.0293244 63.2829678,39.4223051 63.7561646,38.720004 C63.9028342,38.5048173 64.0323744,38.2778541 64.1554912,38.0466087 C64.6897111,37.0370509 64.9958972,35.8861765 64.9958972,34.6625026 L64.9958972,27.8471848 C66.1275012,30.9390223 67.6166792,34.0040954 69.619736,36.674124 C69.6518534,36.7265825 69.6818297,36.7801115 69.7193,36.8304288 C69.8070876,36.944981 69.8991576,37.057392 69.9912275,37.1708735 C70.0586741,37.2575906 70.1261207,37.3432371 70.1935673,37.4278129 C70.5265179,37.8378454 70.871245,38.2361015 71.2320307,38.6215106 C71.2812775,38.6739691 71.3315948,38.7253569 71.3797709,38.7767448 C71.752333,39.1653657 72.1345304,39.5464925 72.5381394,39.9062076 C72.5541981,39.9201252 72.5670451,39.9351133 72.5820332,39.9501015 C72.6045154,39.9693719 72.6280682,39.98436 72.6494798,40.0036305 C73.1162531,40.4147335 73.5948027,40.7990721 74.0797758,41.1727048 C74.0840581,41.1769871 74.0872699,41.1791283 74.0926228,41.1834106 C74.2617746,41.3140215 74.4309263,41.4457029 74.6043604,41.573102 C76.8611449,43.2271495 79.2935046,44.5193406 81.6958881,45.5331806 C81.721582,45.5438864 81.7504877,45.5481688 81.7772522,45.5588746 C87.4106487,47.9334229 92.888811,48.7941699 95.6969446,49.105709 L95.8436141,55.7047694 L82.4399418,55.7047694 L82.4399418,52.607579 C82.4399418,51.9277601 81.9474746,51.3475053 81.277291,51.238306 L70.9151388,49.5114591 C70.5126004,49.4440125 70.0982856,49.5553529 69.785676,49.820857 C69.474137,50.0842199 69.29535,50.4739113 69.29535,50.8818026 L69.29535,55.7047694 L38.2217405,55.7047694 L38.2217405,50.8828732 C38.2217405,50.4749819 38.0418829,50.0852905 37.7303439,49.8219276 C37.4188048,49.5564235 37.00449,49.4450831 36.6030222,49.5125297 L26.2397995,51.2393766 C25.5685453,51.3496465 25.0771487,51.9299013 25.0771487,52.6086495 L25.0771487,55.70584 L11.6734763,55.70584 L11.8201459,49.1067796 C14.6496911,48.7930994 20.182453,47.9216465 25.8522492,45.5106984 Z M79.6596433,53.7884297 L79.6596433,55.70584 L72.0756485,55.70584 L72.0756485,52.5230031 L79.6596433,53.7884297 Z M35.4446537,52.5240737 L35.4446537,55.7069106 L27.8606589,55.7069106 L27.8606589,53.7895002 L35.4446537,52.5240737 Z M18.2650427,25.4041193 C19.3998584,23.811095 20.6567203,22.3850813 22.003511,21.1014548 L22.003511,42.1362276 C22.003511,42.2668384 22.0142168,42.393167 22.0217109,42.5205661 C20.5475211,43.0430096 19.0958134,43.4765948 17.7383169,43.8116866 C15.4344269,44.3833768 13.3960409,44.7120451 11.9464744,44.8983262 C11.8297811,44.9122437 11.7248642,44.9250907 11.6145944,44.9400788 C12.430377,38.4994644 14.3188816,30.9069049 18.2650427,25.4041193 Z M4.71898303,66.0712039 L4.71898303,59.8778936 L8.98631834,59.8778936 C8.99060067,59.8778936 8.99488299,59.8800348 9.00130647,59.8800348 L97.9772818,59.8800348 C97.9826347,59.8800348 97.986917,59.8778936 97.9911993,59.8778936 L102.800249,59.8778936 L102.800249,66.0712039 L92.6693419,66.0712039 C92.6650596,66.0712039 92.6629184,66.0690627 92.6607772,66.0690627 L14.8573838,66.0690627 C14.8531015,66.0690627 14.8509603,66.0712039 14.8488191,66.0712039 L4.71898303,66.0712039 Z M87.6183414,70.2421869 L84.0682953,73.7868801 L83.9119904,73.9624554 C83.6357806,74.3724879 82.3307425,75.2118233 80.3694384,75.8531012 C74.4534085,77.8872048 63.1919685,78.9481505 53.977479,78.9320917 C53.898256,78.9320917 53.8340212,78.9331623 53.7879862,78.9342329 C53.6680811,78.9320917 53.5856464,78.9342329 53.5428232,78.9342329 C47.3869832,78.9342329 40.3596905,78.4845889 34.5753421,77.5617482 C31.6879855,77.1013985 29.1078856,76.5200731 27.1497932,75.8531012 C25.1884891,75.2118233 23.8855922,74.3724879 23.6093823,73.9624554 L23.4530775,73.7868801 L19.9030314,70.2421869 L87.6183414,70.2421869 Z M68.3585917,103.317783 C61.2574289,105.344392 55.1379887,105.454662 53.9956789,105.452521 C53.8532916,105.452521 53.7944097,105.45038 53.7944097,105.45038 L53.7419512,105.45038 C53.7419512,105.45038 53.673434,105.45038 53.5246233,105.452521 C52.3791018,105.454662 46.2628733,105.34118 39.1606399,103.317783 C32.0423478,101.295455 24.02905,97.385694 18.7585804,89.9762039 C14.7695962,84.4156069 12.8992914,76.7074247 12.1124145,70.2421869 L13.9966368,70.2421869 L20.4372512,76.6688838 C21.7315835,78.1644853 23.5633473,79.0113147 25.8072848,79.8003328 C32.6643552,82.1117169 43.9846773,83.0891572 53.5417526,83.1030748 L53.9764084,83.1030748 C60.3345882,83.1020042 67.514974,82.6470073 73.6001556,81.6792022 C76.6448876,81.1931585 79.4112685,80.5829274 81.7130174,79.8003328 C83.9483902,79.0123853 85.7758717,78.1719793 87.0680628,76.6828014 L93.5225948,70.2421869 L95.4068171,70.2421869 C95.0406785,73.2505191 94.4347297,76.525426 93.4936892,79.7275333 C84.8615957,84.1372559 78.1297832,91.7266036 74.8495235,100.960364 C72.6708914,101.941016 70.4762006,102.715046 68.3585917,103.317783 Z M149.141412,137.845086 C142.979148,144.028761 134.489442,147.853946 125.095095,147.856088 L110.828534,147.856088 C104.739071,147.856088 99.0414392,146.247005 94.1007085,143.433518 C90.7979665,141.551437 87.8378105,139.128712 85.3412159,136.290603 C85.0457356,135.95444 84.641056,135.722124 84.2053296,135.627913 C72.6237859,133.161295 66.0418547,127.849072 62.2423633,123.197399 C61.4736862,122.249935 60.8206319,121.330306 60.2692827,120.464206 C60.4159523,120.539146 60.5615513,120.615158 60.7114326,120.689028 C64.5077124,122.576462 69.5158896,124.530272 74.6739482,124.547401 C75.0904042,124.54526 75.5100719,124.532413 75.9265278,124.505648 C76.544253,124.463896 77.1084491,124.154498 77.4735172,123.655607 C77.8396558,123.155646 77.9606314,122.525074 77.8139619,121.925549 C77.167331,119.299414 76.8183217,116.561938 76.8183217,113.743099 C76.8183217,104.34554 80.6210249,95.855834 86.779006,89.6946411 C92.9412694,83.53666 101.429905,79.7350274 110.826393,79.7328862 L125.092954,79.7328862 C134.491583,79.7350274 142.981289,83.53666 149.142482,89.6946411 C155.300463,95.855834 159.103167,104.34554 159.103167,113.743099 C159.104237,123.141728 155.300463,131.658199 149.141412,137.845086 Z M136.21843,108.388054 C133.23258,108.388054 130.810926,110.808637 130.810926,113.793416 C130.810926,116.779266 133.23258,119.198779 136.21843,119.198779 C139.20428,119.198779 141.622722,116.779266 141.623793,113.793416 C141.622722,110.808637 139.20428,108.388054 136.21843,108.388054 Z M136.21843,116.419551 C134.768864,116.41741 133.595507,115.245124 133.592295,113.793416 C133.595507,112.34492 134.769934,111.169423 136.21843,111.169423 C137.666926,111.169423 138.840283,112.345991 138.842424,113.793416 C138.841353,115.245124 137.667997,116.41741 136.21843,116.419551 Z M117.963956,108.388054 C114.975965,108.388054 112.557523,110.808637 112.557523,113.793416 C112.557523,116.779266 114.975965,119.198779 117.963956,119.198779 C120.948735,119.198779 123.369319,116.781407 123.369319,113.793416 C123.368248,110.808637 120.948735,108.388054 117.963956,108.388054 Z M117.963956,116.419551 C116.514389,116.41741 115.341033,115.245124 115.33675,113.793416 C115.341033,112.34492 116.514389,111.169423 117.963956,111.169423 C119.413522,111.169423 120.584738,112.345991 120.590091,113.793416 C120.584738,115.242983 119.412452,116.41741 117.963956,116.419551 Z M99.708411,108.388054 C96.7204199,108.390195 94.3009071,110.807566 94.3009071,113.795557 C94.3009071,116.780337 96.7204199,119.19985 99.708411,119.19985 C102.69319,119.19985 105.113774,116.780337 105.113774,113.795557 C105.113774,110.807566 102.69319,108.390195 99.708411,108.388054 Z M99.708411,116.419551 C98.257774,116.418481 97.0844174,115.242983 97.080135,113.795557 C97.0844174,112.345991 98.257774,111.171564 99.708411,111.169423 C101.156907,111.171564 102.329193,112.345991 102.334546,113.795557 C102.329193,115.242983 101.155836,116.418481 99.708411,116.419551 Z"/>
</svg>
