<?xml version="1.0" encoding="UTF-8"?>
<svg width="101px" height="153px" viewBox="0 0 101 153" version="1.1" xmlns="http://www.w3.org/2000/svg" xmlns:xlink="http://www.w3.org/1999/xlink">
    <!-- Generator: Sketch 42 (36781) - http://www.bohemiancoding.com/sketch -->
    <title>Untitled 5</title>
    <desc>Created with Sketch.</desc>
    <defs>
        <linearGradient x1="-0.00181157597%" y1="50.0005921%" x2="99.998591%" y2="50.0005921%" id="linearGradient-1">
            <stop stop-color="#009EAE" offset="0%"></stop>
            <stop stop-color="#0076B0" offset="100%"></stop>
        </linearGradient>
    </defs>
    <g id="Page-1" stroke="none" stroke-width="1" fill="none" fill-rule="evenodd">
        <path d="M44.395,83.515 L55.89,83.515 C56.874,83.515 57.672,82.718 57.672,81.737 C57.672,80.751 56.874,79.956 55.89,79.956 L44.395,79.956 C43.411,79.956 42.615,80.751 42.615,81.737 C42.614,82.718 43.41,83.515 44.395,83.515 Z M75.347,116.355 L71.807,116.355 L71.807,119.896 L75.347,119.896 L75.347,116.355 Z M29.013,116.373 L25.473,116.373 L25.473,119.912 L29.013,119.912 L29.013,116.373 Z M97.188,103.861 C96.954,103.165 96.709,102.468 96.437,101.775 C96.244,101.283 96.041,100.791 95.827,100.3 C93.545,95.077 89.994,90.048 84.669,86.058 C83.11,84.89 81.4,83.81 79.522,82.843 C80.737,81.659 81.884,80.351 82.928,78.89 C86.978,73.177 88.595,65.894 89.282,59.973 L93.795,59.973 C94.266,59.973 94.724,59.784 95.055,59.453 C95.387,59.121 95.576,58.661 95.576,58.193 L95.576,49.344 C95.576,48.875 95.387,48.416 95.055,48.085 C94.724,47.754 94.266,47.563 93.795,47.563 L89.737,47.563 C89.741,47.283 89.744,46.983 89.744,46.65 C89.744,45.102 89.689,43.009 89.483,40.608 L89.475,40.264 L89.475,40.261 L89.474,40.209 C89.473,40.158 89.457,40.113 89.452,40.063 C89.444,40.005 89.439,39.949 89.426,39.892 C89.416,39.847 89.417,39.796 89.405,39.752 C88.789,33.618 87.216,25.725 82.89,19.624 C81.074,17.075 78.936,14.995 76.664,13.258 L76.664,12.005 C76.601,8.609 74.151,5.671 70.839,4.907 L70.468,6.65 L70.838,4.907 L69.973,4.723 C69.543,4.631 69.108,4.584 68.682,4.584 C67.252,4.579 65.89,5.122 64.923,6.104 C64.647,6.381 64.416,6.698 64.211,7.033 C62.834,6.616 61.495,6.275 60.225,6.002 L60.122,5.981 C59.971,5.958 59.852,5.94 59.724,5.92 C59.568,2.636 56.867,0.02 53.543,0.02 L46.745,0.02 C43.481,0.02 40.817,2.541 40.572,5.74 L39.551,6.012 C38.261,6.291 36.899,6.639 35.499,7.067 C35.291,6.719 35.055,6.39 34.77,6.104 C33.802,5.123 32.44,4.58 31.011,4.584 C30.592,4.584 30.159,4.628 29.72,4.723 L28.855,4.907 C25.541,5.671 23.091,8.608 23.029,12.005 L23.029,13.357 C20.806,15.076 18.715,17.127 16.937,19.625 C12.61,25.725 11.039,33.617 10.42,39.749 C10.378,39.895 10.354,40.049 10.35,40.207 L10.342,40.596 C10.135,43.001 10.08,45.097 10.08,46.647 C10.08,46.981 10.083,47.282 10.087,47.563 L6.49,47.563 C6.021,47.563 5.563,47.754 5.231,48.085 C4.898,48.416 4.709,48.875 4.709,49.344 L4.709,58.193 C4.709,58.662 4.898,59.121 5.231,59.453 C5.563,59.783 6.021,59.973 6.49,59.973 L11.005,59.973 C11.692,65.894 13.309,73.177 17.359,78.89 C18.447,80.414 19.65,81.771 20.923,82.994 C19.335,83.829 17.855,84.736 16.5,85.719 C10.398,90.138 6.573,95.908 4.271,101.811 C1.186,109.688 0.682,117.819 0.679,123.739 L0.679,150.245 C0.679,150.714 0.869,151.173 1.202,151.504 C1.533,151.834 1.992,152.025 2.46,152.025 L98.26,152.025 C98.727,152.025 99.187,151.835 99.518,151.504 C99.851,151.173 100.039,150.714 100.039,150.245 L100.039,149.999 C100.039,149.995 100.04,149.993 100.04,149.989 L100.04,123.739 C100.036,118.332 99.611,111.08 97.188,103.861 Z M76.664,35.979 L76.664,17.897 C77.863,19.023 78.981,20.281 79.986,21.692 C83.345,26.375 84.956,32.829 85.656,38.315 C83.557,38.038 80.168,37.409 76.655,36.1 C76.655,36.059 76.664,36.02 76.664,35.979 Z M66.97,9.945 C66.97,9.904 66.978,9.873 66.98,9.835 C66.985,9.742 66.99,9.65 67.008,9.542 C67.01,9.525 67.009,9.51 67.012,9.494 C67.085,9.101 67.248,8.824 67.45,8.614 C67.73,8.337 68.115,8.154 68.681,8.15 C68.85,8.15 69.032,8.168 69.23,8.209 L70.099,8.395 L70.099,8.394 C71.662,8.67 73.165,10.524 73.102,12.008 L73.102,34.517 C73.039,34.485 72.977,34.452 72.914,34.418 C72.61,34.256 72.308,34.088 72.009,33.912 C71.922,33.861 71.837,33.808 71.75,33.756 C71.423,33.559 71.099,33.357 70.782,33.144 C70.725,33.106 70.671,33.065 70.615,33.027 C70.39,32.873 70.17,32.712 69.951,32.549 C69.847,32.472 69.74,32.402 69.638,32.322 C69.556,32.259 69.479,32.189 69.399,32.125 C69.12,31.904 68.843,31.682 68.577,31.445 C68.009,30.942 67.473,30.374 66.969,29.755 L66.969,9.945 L66.97,9.945 Z M63.407,10.512 L63.407,23.4 C62.6,21.368 61.974,19.246 61.505,17.237 C60.898,14.678 60.522,12.321 60.263,10.575 C60.212,10.236 60.167,9.929 60.124,9.637 C61.185,9.881 62.282,10.163 63.407,10.512 Z M44.108,6.219 C44.11,4.766 45.288,3.587 46.744,3.586 L53.542,3.586 C54.996,3.587 56.174,4.766 56.176,6.219 L56.176,7.451 L56.176,7.455 L56.176,29.598 C56.176,29.672 56.16,29.741 56.154,29.813 C56.061,30.936 55.274,31.852 54.216,32.134 C54.168,32.147 54.123,32.168 54.074,32.178 C54.01,32.192 53.942,32.19 53.876,32.199 C53.766,32.214 53.657,32.233 53.543,32.233 L46.745,32.233 C46.199,32.232 45.692,32.066 45.272,31.782 C44.571,31.309 44.11,30.509 44.109,29.598 L44.109,6.219 L44.108,6.219 Z M36.284,10.552 C37.59,10.145 38.861,9.821 40.077,9.55 C39.968,10.255 39.848,11.082 39.694,12.033 C39.16,15.521 38.153,20.431 36.284,24.707 L36.284,10.552 Z M26.59,12.008 C26.526,10.524 28.029,8.668 29.594,8.393 L30.457,8.211 L30.087,6.47 L30.466,8.209 C30.655,8.168 30.835,8.15 31.009,8.149 C31.576,8.154 31.96,8.337 32.239,8.615 C32.449,8.832 32.614,9.12 32.683,9.529 C32.684,9.539 32.683,9.549 32.685,9.558 C32.695,9.621 32.694,9.662 32.7,9.716 C32.707,9.791 32.72,9.861 32.72,9.945 L32.72,30.435 L32.719,30.437 C32.391,30.797 32.053,31.136 31.703,31.445 C31.615,31.523 31.519,31.593 31.429,31.67 C31.103,31.949 30.773,32.223 30.429,32.481 C30.234,32.627 30.031,32.762 29.831,32.902 C29.572,33.083 29.313,33.264 29.046,33.434 C28.833,33.571 28.615,33.7 28.398,33.829 C28.129,33.989 27.86,34.145 27.586,34.296 C27.372,34.413 27.156,34.527 26.939,34.639 C26.822,34.699 26.704,34.754 26.586,34.812 L26.59,12.008 Z M26.357,38.84 C26.552,38.757 26.746,38.676 26.941,38.589 C26.983,38.57 27.024,38.55 27.066,38.531 C27.202,38.468 27.338,38.406 27.474,38.343 C29.29,37.498 31.097,36.456 32.78,35.164 C32.783,35.161 32.787,35.158 32.79,35.156 C33.209,34.834 33.622,34.502 34.023,34.147 C34.038,34.134 34.054,34.123 34.068,34.11 C34.088,34.091 34.106,34.072 34.126,34.053 C34.473,33.741 34.801,33.417 35.116,33.083 C35.21,32.982 35.299,32.878 35.39,32.775 C35.549,32.599 35.713,32.426 35.865,32.246 C35.881,32.227 35.886,32.202 35.901,32.183 C37.99,29.677 39.467,26.668 40.545,23.631 L40.545,29.596 C40.546,31.391 41.313,33 42.531,34.132 C43.636,35.158 45.114,35.791 46.743,35.793 L53.541,35.793 C53.989,35.793 54.424,35.742 54.845,35.652 C57.64,35.05 59.735,32.57 59.737,29.595 L59.737,23.775 C60.714,26.441 62.001,29.088 63.738,31.383 C63.751,31.402 63.757,31.426 63.771,31.445 C63.811,31.498 63.857,31.545 63.897,31.597 C64.135,31.904 64.387,32.201 64.643,32.493 C64.767,32.636 64.886,32.781 65.014,32.92 C65.396,33.332 65.793,33.732 66.214,34.108 C66.715,34.546 67.234,34.954 67.76,35.345 C68.006,35.53 68.255,35.704 68.506,35.878 C68.808,36.087 69.112,36.286 69.419,36.48 C69.732,36.678 70.042,36.876 70.358,37.058 C70.81,37.322 71.265,37.572 71.723,37.807 C71.976,37.937 72.227,38.058 72.481,38.179 C72.858,38.361 73.234,38.534 73.611,38.7 C73.739,38.756 73.867,38.822 73.995,38.877 C74.019,38.887 74.045,38.891 74.07,38.899 C78.877,40.925 83.552,41.662 85.95,41.927 L86.075,47.562 L74.63,47.562 L74.63,44.918 C74.63,44.337 74.212,43.842 73.638,43.745 L64.79,42.271 C64.446,42.213 64.093,42.312 63.827,42.536 C63.561,42.761 63.408,43.094 63.408,43.444 L63.408,47.561 L36.876,47.561 L36.876,43.444 C36.876,43.093 36.723,42.76 36.458,42.536 C36.192,42.312 35.838,42.214 35.496,42.271 L26.646,43.745 C26.074,43.842 25.654,44.337 25.654,44.918 L25.654,47.562 L14.21,47.562 L14.335,41.927 C16.756,41.66 21.5,40.912 26.357,38.84 Z M72.257,45.927 L72.257,47.565 L65.782,47.565 L65.782,44.847 L72.257,45.927 Z M34.502,44.847 L34.502,47.565 L28.027,47.565 L28.027,45.927 L34.502,44.847 Z M19.835,21.691 C20.804,20.332 21.877,19.113 23.027,18.017 L23.027,35.978 C23.027,36.089 23.051,36.193 23.058,36.302 C21.794,36.75 20.55,37.123 19.386,37.41 C17.418,37.897 15.677,38.178 14.439,38.335 C14.341,38.348 14.251,38.358 14.16,38.369 C14.856,32.871 16.467,26.391 19.835,21.691 Z M8.27,56.413 L8.27,51.125 L92.014,51.125 L92.014,56.413 L8.27,56.413 Z M79.052,59.976 L76.02,63 L75.887,63.15 C75.65,63.502 74.537,64.217 72.862,64.765 C67.811,66.503 58.196,67.407 50.329,67.394 C50.244,67.395 50.182,67.395 50.142,67.395 L50.142,67.396 C50.105,67.395 50.073,67.395 50.044,67.395 L49.957,67.395 C44.699,67.395 38.699,67.012 33.761,66.224 C31.295,65.831 29.094,65.335 27.421,64.765 C25.748,64.217 24.635,63.501 24.398,63.15 L24.264,63 L21.232,59.976 L79.052,59.976 Z M20.257,76.823 C16.852,72.076 15.256,65.496 14.583,59.975 L16.19,59.975 L21.7,65.474 C22.804,66.745 24.364,67.464 26.275,68.137 C32.13,70.111 41.794,70.943 49.957,70.954 L50.328,70.954 C55.756,70.953 61.888,70.565 67.082,69.739 C69.682,69.324 72.045,68.801 74.008,68.135 C75.912,67.465 77.468,66.748 78.571,65.485 L84.094,59.974 L85.702,59.974 C85.03,65.495 83.432,72.075 80.028,76.822 C75.527,83.149 68.687,86.487 62.608,88.215 C56.544,89.944 51.319,90.039 50.343,90.037 L50.303,90.037 L50.172,90.037 L49.943,90.037 C49.456,90.038 47.919,90.015 45.752,89.778 C45.725,89.775 45.699,89.772 45.672,89.768 C45.495,89.748 45.31,89.727 45.125,89.704 C44.985,89.686 44.847,89.671 44.703,89.651 C44.677,89.648 44.65,89.643 44.623,89.64 C41.899,89.276 38.428,88.588 34.847,87.299 C34.842,87.297 34.838,87.295 34.833,87.294 C34.52,87.182 34.207,87.065 33.893,86.941 C33.834,86.919 33.774,86.894 33.715,86.871 C33.437,86.762 33.159,86.65 32.881,86.533 C32.66,86.439 32.439,86.341 32.219,86.242 C32.022,86.155 31.826,86.066 31.63,85.974 C31.34,85.839 31.05,85.701 30.761,85.556 C30.669,85.511 30.577,85.462 30.486,85.415 C30.204,85.27 29.922,85.122 29.642,84.97 C29.55,84.919 29.459,84.868 29.369,84.818 C29.09,84.662 28.812,84.501 28.536,84.336 C28.445,84.281 28.353,84.227 28.262,84.17 C27.994,84.006 27.728,83.836 27.463,83.662 C27.364,83.597 27.265,83.533 27.167,83.468 C26.938,83.314 26.711,83.152 26.485,82.99 C26.057,82.682 25.632,82.367 25.218,82.033 C25.213,82.029 25.207,82.027 25.202,82.023 C23.382,80.566 21.698,78.85 20.257,76.823 Z M70.044,113.422 L70.044,89.382 C71.704,88.627 73.364,87.736 74.98,86.686 C75.581,86.294 76.177,85.885 76.763,85.449 C76.882,85.505 76.992,85.566 77.109,85.623 L77.109,121.676 L70.046,121.676 L70.046,113.425 C70.045,113.423 70.044,113.422 70.044,113.422 Z M67.671,90.375 L67.671,112.236 L33.15,112.236 L33.15,90.472 C33.163,90.476 33.175,90.48 33.189,90.486 C33.301,90.527 33.412,90.566 33.524,90.607 C33.826,90.717 34.128,90.826 34.428,90.927 C34.754,91.038 35.078,91.146 35.4,91.248 C35.486,91.274 35.57,91.3 35.656,91.326 C35.98,91.427 36.302,91.523 36.621,91.615 C36.648,91.623 36.676,91.632 36.703,91.639 C36.739,91.649 36.773,91.658 36.809,91.668 C37.253,91.793 37.692,91.912 38.124,92.022 C38.179,92.036 38.235,92.051 38.29,92.065 C38.695,92.167 39.093,92.258 39.486,92.346 C40.514,92.576 41.498,92.763 42.426,92.916 C42.43,92.916 42.434,92.917 42.438,92.918 C42.761,92.971 43.077,93.02 43.386,93.064 C43.421,93.07 43.456,93.075 43.49,93.08 C43.752,93.117 44.009,93.152 44.26,93.185 C47.012,93.542 49.035,93.591 49.817,93.596 C49.859,93.597 49.905,93.597 49.939,93.598 C50.015,93.597 50.067,93.598 50.098,93.597 L50.63,93.597 C52.008,93.579 59.551,93.482 67.671,90.375 Z M30.775,89.499 L30.775,121.675 L23.711,121.675 L23.711,85.574 C23.765,85.548 23.815,85.519 23.868,85.494 C26.084,87.146 28.433,88.457 30.775,89.499 Z M4.239,123.738 C4.235,118.03 4.75,110.325 7.585,103.112 C8.617,100.498 9.937,97.951 11.644,95.57 C14.027,92.246 17.175,89.251 21.337,86.837 L21.337,112.236 L16.626,112.236 C16.312,112.236 16.007,112.363 15.786,112.584 C15.565,112.806 15.438,113.11 15.438,113.424 L15.438,127.778 L4.24,127.778 L4.24,123.738 L4.239,123.738 Z M96.476,148.207 L4.239,148.207 L4.239,130.152 L16.625,130.152 C16.942,130.152 17.239,130.027 17.463,129.804 C17.688,129.578 17.811,129.282 17.811,128.965 L17.811,114.61 L21.336,114.61 L21.336,122.862 C21.336,123.042 21.385,123.211 21.46,123.368 C21.518,123.488 21.586,123.604 21.684,123.702 C21.716,123.734 21.759,123.748 21.794,123.775 C22.003,123.943 22.252,124.049 22.524,124.049 L31.961,124.049 C32.229,124.049 32.474,123.944 32.682,123.78 C32.72,123.751 32.766,123.735 32.801,123.701 C32.913,123.589 33,123.458 33.059,123.315 C33.118,123.172 33.149,123.019 33.149,122.861 L33.149,114.606 L67.67,114.606 L67.67,122.861 C67.67,123.177 67.793,123.475 68.017,123.7 L68.017,123.7 L68.017,123.701 C68.032,123.716 68.052,123.721 68.067,123.734 C68.286,123.932 68.56,124.048 68.856,124.048 L78.294,124.048 C78.543,124.048 78.768,123.953 78.966,123.812 C79.022,123.774 79.085,123.749 79.134,123.701 C79.359,123.475 79.482,123.178 79.482,122.861 L79.482,114.609 L83.007,114.609 L83.007,128.964 C83.007,129.28 83.131,129.577 83.355,129.803 C83.579,130.026 83.876,130.151 84.192,130.151 L96.474,130.151 L96.474,148.207 L96.476,148.207 Z M96.476,127.777 L85.383,127.777 L85.383,113.423 C85.383,113.11 85.256,112.805 85.035,112.583 C84.813,112.362 84.508,112.235 84.194,112.235 L79.482,112.235 L79.482,86.887 C79.983,87.18 80.469,87.48 80.94,87.789 C86.458,91.409 89.997,96.133 92.32,101.214 C92.602,101.83 92.872,102.449 93.12,103.075 C95.965,110.298 96.479,118.019 96.475,123.736 L96.475,127.777 L96.476,127.777 Z" id="Shape" fill="url(#linearGradient-1)" fill-rule="nonzero"></path>
    </g>
</svg>