<?xml version="1.0" standalone="no"?>
<!DOCTYPE svg PUBLIC "-//W3C//DTD SVG 20010904//EN"
 "http://www.w3.org/TR/2001/REC-SVG-20010904/DTD/svg10.dtd">
<svg version="1.0" xmlns="http://www.w3.org/2000/svg"
 width="300.000000pt" height="300.000000pt" viewBox="0 0 300.000000 300.000000"
 preserveAspectRatio="xMidYMid meet">
<metadata>
Created by potrace 1.11, written by Peter Selinger 2001-2013
</metadata>
<g transform="translate(0.000000,300.000000) scale(0.100000,-0.100000)"
fill="#000000" stroke="none">
<path d="M0 1500 l0 -1500 1500 0 1500 0 0 1500 0 1500 -1500 0 -1500 0 0
-1500z m2465 825 c207 -54 342 -191 396 -403 29 -115 31 -112 -51 -112 -68 0
-70 1 -76 28 -29 131 -57 194 -117 259 -85 92 -190 128 -354 121 -93 -4 -109
-8 -177 -41 -129 -64 -225 -198 -263 -367 -25 -113 -25 -504 0 -615 68 -296
266 -444 543 -407 102 13 176 45 236 101 68 62 103 138 133 284 5 26 7 27 76
27 l71 0 -7 -48 c-48 -320 -288 -507 -630 -489 -247 13 -433 150 -525 389 -51
132 -63 232 -57 493 3 194 7 243 25 310 66 245 220 412 433 469 74 20 268 20
344 1z m-1286 -805 c167 -441 305 -810 308 -821 5 -19 1 -20 -67 -17 l-72 3
-83 225 -83 225 -372 0 -373 0 -82 -225 -83 -225 -71 -3 c-49 -2 -71 1 -71 9
0 6 136 370 301 808 166 438 304 802 306 809 4 8 28 12 72 12 l68 0 302 -800z"/>
<path d="M645 1702 l-161 -437 320 -3 c175 -1 321 0 323 2 5 5 -305 857 -316
868 -3 3 -78 -190 -166 -430z"/>
</g>
</svg>
