<?xml version="1.0" encoding="UTF-8"?>
<svg width="435px" height="532px" viewBox="0 0 435 532" version="1.1" xmlns="http://www.w3.org/2000/svg" xmlns:xlink="http://www.w3.org/1999/xlink" xmlns:sketch="http://www.bohemiancoding.com/sketch/ns">
    <!-- Generator: Sketch 3.3.3 (12081) - http://www.bohemiancoding.com/sketch -->
    <title>Untitled 6</title>
    <desc>Created with Sketch.</desc>
    <defs></defs>
    <g id="Page-1" stroke="none" stroke-width="1" fill="none" fill-rule="evenodd" sketch:type="MSPage">
        <path d="M350.589478,266.418118 C347.59291,262.004152 345.826,259.54 345.826,259.54 C345.826,259.54 345.451005,259.948677 344.719136,260.697485 C343.910017,259.935066 343.475435,259.54 343.475435,259.54 C343.475435,259.54 340.776532,263.634305 335.127725,269.651337 C316.025715,286.209064 272.814302,317.317225 217.477217,317.647507 C162.140135,317.317226 118.92872,286.209064 99.8267095,269.651337 C94.1779027,263.634305 91.479,259.54 91.479,259.54 C91.479,259.54 91.0444175,259.935066 90.2352991,260.697485 C89.50343,259.948677 89.1284347,259.54 89.1284347,259.54 C89.1284347,259.54 87.3615244,262.004152 84.364957,266.418118 C58.2246452,292.602814 -28.9859964,388.571007 10.549,467.641 C38.1563904,522.855781 139.928864,532.747832 217.477217,531.75298 C295.025571,532.747832 396.798044,522.855781 424.405435,467.641 C463.940431,388.571007 376.729789,292.602814 350.589478,266.418118 Z M219.294,299.31 C301.946174,299.31 368.949,232.307174 368.949,149.655 C368.949,67.0028258 301.946174,0 219.294,0 C136.641826,0 69.639,67.0028258 69.639,149.655 C69.639,232.307174 136.641826,299.31 219.294,299.31 Z" id="Oval" fill="#000000" sketch:type="MSShapeGroup"></path>
    </g>
</svg>