<?xml version="1.0" encoding="UTF-8"?>
<svg width="27px" height="27px" viewBox="0 0 27 27" version="1.1" xmlns="http://www.w3.org/2000/svg" xmlns:xlink="http://www.w3.org/1999/xlink" xmlns:sketch="http://www.bohemiancoding.com/sketch/ns">
    <!-- Generator: Sketch 3.3.3 (12081) - http://www.bohemiancoding.com/sketch -->
    <title>Untitled 5</title>
    <desc>Created with Sketch.</desc>
    <defs></defs>
    <g id="Page-1" stroke="none" stroke-width="1" fill="none" fill-rule="evenodd" sketch:type="MSPage">
        <path d="M13.4914153,26.9816043 C6.03992551,26.9816043 0,20.9416788 0,13.490189 C0,6.03992551 6.03992551,0 13.4914153,0 C20.9416788,0 26.9816043,6.03992551 26.9816043,13.490189 C26.9816043,20.9416788 20.9416788,26.9816043 13.4914153,26.9816043 L13.4914153,26.9816043 L13.4914153,26.9816043 Z M19.6049237,13.4031159 L19.6049237,10.9258267 L17.2551781,10.9258267 L17.2551781,9.53878997 C17.2551781,8.88758176 17.7518623,8.36023801 18.3638263,8.36023801 L19.6049237,8.36023801 L19.6049237,6.12209302 L16.9130178,6.12209302 C15.2770258,6.12209302 14.2419604,7.37913336 14.2419604,9.11936773 L14.2419604,10.9258267 L12.2478652,10.9258267 L12.2478652,13.4031159 L14.2419604,13.4031159 L14.2419604,20.8165879 L17.2551781,20.8165879 L17.2551781,13.4031159 L19.6049237,13.4031159 L19.6049237,13.4031159 Z" id="fb" fill="#6A7582" sketch:type="MSShapeGroup"></path>
    </g>
</svg>