<?xml version="1.0" encoding="UTF-8"?>
<svg width="330px" height="402px" viewBox="0 0 330 402" version="1.1" xmlns="http://www.w3.org/2000/svg" xmlns:xlink="http://www.w3.org/1999/xlink" xmlns:sketch="http://www.bohemiancoding.com/sketch/ns">
    <!-- Generator: Sketch 3.3.3 (12081) - http://www.bohemiancoding.com/sketch -->
    <title>Slice 1</title>
    <desc>Created with Sketch.</desc>
    <defs></defs>
    <g id="Page-1" stroke="none" stroke-width="1" fill="none" fill-rule="evenodd" sketch:type="MSPage">
        <g id="padlock" sketch:type="MSLayerGroup" fill="#000000">
            <path d="M321.45,190.721 C316.119,185.391 309.65,182.728 302.033,182.728 L292.902,182.728 L292.902,127.907 C292.902,92.885 280.343,62.814 255.217,37.689 C230.093,12.563 200.025,0 164.998,0 C129.972,0 99.898,12.563 74.776,37.688 C49.65,62.814 37.091,92.884 37.091,127.907 L37.091,182.728 L27.956,182.728 C20.345,182.728 13.872,185.391 8.542,190.721 C3.212,196.047 0.548,202.52 0.548,210.138 L0.548,374.59 C0.548,382.201 3.213,388.676 8.542,394.007 C13.872,399.332 20.345,401.998 27.956,401.998 L302.04,401.998 C309.657,401.998 316.125,399.335 321.457,394.007 C326.782,388.676 329.451,382.201 329.451,374.59 L329.451,210.135 C329.455,202.523 326.782,196.051 321.45,190.721 L321.45,190.721 Z M238.087,182.728 L91.909,182.728 L91.909,127.907 C91.909,107.732 99.048,90.505 113.323,76.232 C127.6,61.957 144.824,54.821 165.001,54.821 C185.18,54.821 202.4,61.956 216.678,76.232 C230.949,90.504 238.087,107.732 238.087,127.907 L238.087,182.728 L238.087,182.728 Z" id="Shape" sketch:type="MSShapeGroup"></path>
        </g>
    </g>
</svg>