<?xml version="1.0" encoding="UTF-8"?>
<svg width="27px" height="27px" viewBox="0 0 27 27" version="1.1" xmlns="http://www.w3.org/2000/svg" xmlns:xlink="http://www.w3.org/1999/xlink" xmlns:sketch="http://www.bohemiancoding.com/sketch/ns">
    <!-- Generator: Sketch 3.3.3 (12081) - http://www.bohemiancoding.com/sketch -->
    <title>Untitled 5</title>
    <desc>Created with Sketch.</desc>
    <defs></defs>
    <g id="Page-1" stroke="none" stroke-width="1" fill="none" fill-rule="evenodd" sketch:type="MSPage">
        <path d="M13.4914153,26.9803779 C6.0411519,26.9803779 0,20.9404524 0,13.4901889 C0,6.03992551 6.0411519,0 13.4914153,0 C20.9429051,0 26.9828306,6.03992551 26.9828306,13.4901889 C26.9828306,20.9404524 20.9429051,26.9803779 13.4914153,26.9803779 L13.4914153,26.9803779 Z M21.4260992,9.13531069 C20.8840389,9.37936047 20.301508,9.54369551 19.6907703,9.61727831 C20.3137718,9.23832667 20.7932867,8.63862646 21.0189407,7.92364644 C20.4351835,8.27439135 19.7888808,8.52947856 19.0996548,8.66683322 C18.5490098,8.07203852 17.7641261,7.70044513 16.8946221,7.70044513 C15.2267442,7.70044513 13.8740461,9.0703125 13.8740461,10.7614916 C13.8740461,11.0018623 13.9010265,11.2348746 13.9525345,11.4593023 C11.4409066,11.3317587 9.2150254,10.1127362 7.7249727,8.26090117 C7.46498,8.71343569 7.3165879,9.23832667 7.3165879,9.80000911 C7.3165879,10.8620549 7.8500636,11.7990098 8.6607013,12.347202 C8.1652434,12.3312591 7.6992187,12.1939044 7.2920603,11.9645712 L7.2920603,12.0038154 C7.2920603,13.4865098 8.3332576,14.723928 9.7153888,15.0047693 C9.461528,15.074673 9.1941769,15.1126908 8.9194676,15.1126908 C8.7244731,15.1126908 8.5356104,15.0930687 8.3504269,15.0575036 C8.7355105,16.2740734 9.8502907,17.158294 11.1723292,17.184048 C10.1384902,18.0044967 8.8360737,18.4938227 7.4208303,18.4938227 C7.1767805,18.4938227 6.9364099,18.4791061 6.6997184,18.4508993 C8.0376998,19.319177 9.6246366,19.8268986 11.3305323,19.8268986 C16.8884902,19.8268986 19.9262354,15.161746 19.9262354,11.1159157 C19.9262354,10.9834666 19.9237827,10.8522438 19.9176508,10.7197947 C20.5087663,10.289335 21.0201671,9.74972751 21.4260992,9.13531069 L21.4260992,9.13531069 Z" id="twitter" fill="#6A7582" sketch:type="MSShapeGroup"></path>
    </g>
</svg>