<?xml version="1.0" encoding="UTF-8"?>
<svg width="27px" height="27px" viewBox="0 0 27 27" version="1.1" xmlns="http://www.w3.org/2000/svg" xmlns:xlink="http://www.w3.org/1999/xlink" xmlns:sketch="http://www.bohemiancoding.com/sketch/ns">
    <!-- Generator: Sketch 3.3.3 (12081) - http://www.bohemiancoding.com/sketch -->
    <title>Untitled 5</title>
    <desc>Created with Sketch.</desc>
    <defs></defs>
    <g id="Page-1" stroke="none" stroke-width="1" fill="none" fill-rule="evenodd" sketch:type="MSPage">
        <path d="M13.403947,26.8078938 C20.806743,26.8078938 26.807894,20.8067424 26.807894,13.4039469 C26.807894,6.00115144 20.806743,0 13.403947,0 C6.001152,0 -2.84217094e-14,6.00115144 -2.84217094e-14,13.4039469 C-2.84217094e-14,20.8067424 6.001152,26.8078938 13.403947,26.8078938 L13.403947,26.8078938 Z M12.897638,19.2827788 L13.949682,19.2827788 C13.949682,19.2827788 14.267469,19.2478938 14.429708,19.0729911 C14.579045,18.9124248 14.574266,18.610885 14.574266,18.610885 C14.574266,18.610885 14.553717,17.1992389 15.208885,16.9913628 C15.854735,16.7865929 16.684089,18.3556991 17.563142,18.9590177 C18.227868,19.4156283 18.732983,19.3155133 18.732983,19.3155133 L21.083416,19.2827788 C21.083416,19.2827788 22.312992,19.2070354 21.729983,18.240292 C21.682195,18.1612035 21.390452,17.5251504 19.98239,16.2181593 C18.50862,14.8502389 18.705983,15.0714956 20.481292,12.705292 C21.562487,11.2642566 21.994726,10.3844867 21.859726,10.0076814 C21.730938,9.64879651 20.935753,9.74365491 20.935753,9.74365491 L18.289275,9.76014161 C18.289275,9.76014161 18.093107,9.73338051 17.947593,9.82035401 C17.805425,9.90565491 17.713912,10.1044513 17.713912,10.1044513 C17.713912,10.1044513 17.295053,11.2195752 16.736416,12.1679203 C15.557974,14.1690265 15.086788,14.2746372 14.894204,14.1503894 C14.446195,13.8607965 14.558018,12.987 14.558018,12.3662389 C14.558018,10.4270177 14.852151,9.61845131 13.985284,9.40914161 C13.697602,9.33961061 13.485903,9.29373452 12.750213,9.28632744 C11.80593,9.27653098 11.006682,9.28919469 10.554133,9.51092921 C10.253071,9.65835401 10.020823,9.98689381 10.162275,10.0057699 C10.337177,10.0291858 10.733337,10.1125752 10.943363,10.3985841 C11.214558,10.7675044 11.205,11.5961416 11.205,11.5961416 C11.205,11.5961416 11.360788,13.8789557 10.841098,14.1625752 C10.484363,14.3570708 9.995018,13.9599557 8.944407,12.1445044 C8.40608,11.2145575 7.999646,10.186646 7.999646,10.186646 C7.999646,10.186646 7.921275,9.99453981 7.781496,9.89179651 C7.61185,9.76730971 7.374823,9.72764601 7.374823,9.72764601 L4.86,9.74413271 C4.86,9.74413271 4.482478,9.75464601 4.343894,9.91879651 C4.220602,10.0647876 4.334098,10.3668053 4.334098,10.3668053 C4.334098,10.3668053 6.302947,14.9730531 8.532239,17.2943363 C10.576354,19.4225575 12.897638,19.2827788 12.897638,19.2827788 L12.897638,19.2827788 Z" id="vk" fill="#6A7582" sketch:type="MSShapeGroup"></path>
    </g>
</svg>