<svg xmlns="http://www.w3.org/2000/svg" width="127" height="152" viewBox="0 0 127 152">
  <defs>
    <linearGradient id="a" x1=".001%" x2="100.001%" y1="50%" y2="50%">
      <stop stop-color="#009EAE" offset="0%"/>
      <stop stop-color="#0076B0" offset="100%"/>
    </linearGradient>
    <linearGradient id="b" x1="0%" x2="99.999%" y1="50%" y2="50%">
      <stop stop-color="#009EAE" offset="0%"/>
      <stop stop-color="#0076B0" offset="100%"/>
    </linearGradient>
    <linearGradient id="c" x1=".008%" x2="99.966%" y1="49.993%" y2="49.993%">
      <stop stop-color="#009EAE" offset="0%"/>
      <stop stop-color="#0076B0" offset="100%"/>
    </linearGradient>
    <linearGradient id="d" x1=".004%" x2="99.966%" y1="49.998%" y2="49.998%">
      <stop stop-color="#009EAE" offset="0%"/>
      <stop stop-color="#0076B0" offset="100%"/>
    </linearGradient>
    <linearGradient id="e" x1=".001%" x2="100.001%" y1="50.003%" y2="50.003%">
      <stop stop-color="#009EAE" offset="0%"/>
      <stop stop-color="#0076B0" offset="100%"/>
    </linearGradient>
    <linearGradient id="f" x1=".008%" x2="100.008%" y1="50.002%" y2="50.002%">
      <stop stop-color="#009EAE" offset="0%"/>
      <stop stop-color="#0076B0" offset="100%"/>
    </linearGradient>
    <linearGradient id="g" x1=".005%" x2="99.975%" y1="50.034%" y2="50.034%">
      <stop stop-color="#009EAE" offset="0%"/>
      <stop stop-color="#0076B0" offset="100%"/>
    </linearGradient>
    <linearGradient id="h" x1=".007%" x2="99.98%" y1="50.034%" y2="50.034%">
      <stop stop-color="#009EAE" offset="0%"/>
      <stop stop-color="#0076B0" offset="100%"/>
    </linearGradient>
    <linearGradient id="i" x1=".018%" x2="99.993%" y1="50.01%" y2="50.01%">
      <stop stop-color="#009EAE" offset="0%"/>
      <stop stop-color="#0076B0" offset="100%"/>
    </linearGradient>
    <linearGradient id="j" x1=".014%" x2="100.008%" y1="50.008%" y2="50.008%">
      <stop stop-color="#009EAE" offset="0%"/>
      <stop stop-color="#0076B0" offset="100%"/>
    </linearGradient>
    <linearGradient id="k" x1=".011%" x2="100.025%" y1="49.999%" y2="49.999%">
      <stop stop-color="#009EAE" offset="0%"/>
      <stop stop-color="#0076B0" offset="100%"/>
    </linearGradient>
    <linearGradient id="l" x1="-.003%" y1="49.994%" y2="49.994%">
      <stop stop-color="#009EAE" offset="0%"/>
      <stop stop-color="#0076B0" offset="100%"/>
    </linearGradient>
  </defs>
  <g fill="none" fill-rule="evenodd">
    <path fill="url(#a)" fill-rule="nonzero" d="M126.632,18.411 C126.302,18.078 125.843,17.89 125.374,17.89 L118.258,17.89 L118.253,17.89 L103.413,17.89 L103.413,13.127 C103.413,12.659 103.224,12.199 102.892,11.867 C102.561,11.535 102.102,11.346 101.633,11.346 L92.716,11.346 L92.716,11.348 C90.187,11.312 88.544,9.907 87.878,7.68 C86.975,4.378 85.161,2.284 83.179,1.218 C81.204,0.14 79.222,0.026 77.894,0.023 C76.564,0.026 74.58,0.14 72.609,1.218 C70.625,2.283 68.81,4.378 67.907,7.68 C67.242,9.907 65.599,11.312 63.068,11.348 C59.884,11.346 54.162,11.346 54.154,11.346 C53.683,11.346 53.226,11.535 52.893,11.867 C52.562,12.199 52.371,12.657 52.371,13.127 L52.371,17.89 L37.533,17.89 L37.527,17.89 L30.412,17.89 C29.943,17.89 29.484,18.078 29.152,18.411 C28.822,18.742 28.631,19.202 28.631,19.67 L28.631,50.975 C29.799,50.784 30.986,50.648 32.192,50.584 L32.192,21.451 L35.755,21.451 L35.755,50.583 C36.96,50.647 38.148,50.783 39.315,50.975 L39.315,21.452 L52.373,21.452 L52.373,29.237 C52.373,29.708 52.564,30.165 52.895,30.497 C53.228,30.829 53.685,31.018 54.156,31.018 L101.635,31.018 C102.111,31.018 102.558,30.835 102.894,30.497 C103.23,30.161 103.415,29.714 103.415,29.237 L103.415,21.452 L116.474,21.452 L116.474,98.608 L92.138,98.608 C91.67,98.608 91.21,98.797 90.879,99.129 C90.548,99.459 90.358,99.918 90.358,100.389 L90.358,124.128 L39.314,124.128 L39.314,115.378 C38.147,115.57 36.96,115.705 35.754,115.77 L35.754,125.91 C35.754,126.378 35.943,126.837 36.275,127.168 C36.607,127.5 37.066,127.691 37.533,127.691 L92.533,127.691 C93.002,127.691 93.461,127.5 93.793,127.168 L110.838,110.124 L119.496,101.663 C119.881,101.286 120.064,100.772 120.026,100.256 C120.027,100.234 120.033,100.213 120.033,100.191 L120.033,21.453 L123.594,21.453 L123.594,148.464 L32.19,148.464 L32.19,115.77 C30.985,115.706 29.797,115.57 28.629,115.378 L28.629,150.243 C28.629,150.718 28.815,151.166 29.15,151.502 C29.488,151.839 29.933,152.023 30.41,152.023 L125.373,152.023 C125.848,152.023 126.295,151.839 126.631,151.502 C126.967,151.166 127.152,150.718 127.152,150.243 L127.152,19.67 C127.153,19.202 126.965,18.742 126.632,18.411 Z M99.852,27.457 L55.932,27.457 L55.932,19.676 L55.933,19.67 C55.933,19.667 55.932,19.666 55.932,19.666 L55.932,14.906 C56.374,14.906 56.878,14.908 57.415,14.909 C59.247,14.906 61.477,14.906 63.067,14.909 C67.141,14.941 70.372,12.239 71.337,8.638 C72.077,6.066 73.183,4.983 74.317,4.34 C75.462,3.707 76.796,3.58 77.893,3.585 C78.989,3.58 80.321,3.707 81.465,4.34 C82.6,4.983 83.707,6.066 84.447,8.638 C85.412,12.241 88.642,14.942 92.715,14.907 L92.715,14.91 C94.774,14.907 97.901,14.907 99.851,14.907 L99.851,27.457 L99.852,27.457 Z M108.333,107.59 L93.916,121.68 L93.917,102.168 L113.755,102.168 L108.333,107.59 Z M77.892,4.83 C74.941,4.833 72.552,7.223 72.55,10.176 C72.552,13.124 74.941,15.515 77.892,15.515 C80.843,15.515 83.233,13.124 83.234,10.176 C83.232,7.223 80.843,4.833 77.892,4.83 Z M77.892,13.142 C76.253,13.137 74.927,11.813 74.925,10.176 C74.927,8.535 76.253,7.209 77.892,7.207 C79.533,7.209 80.858,8.535 80.861,10.176 C80.857,11.813 79.532,13.137 77.892,13.142 Z M102.226,78.428 C102.882,78.428 103.414,77.897 103.414,77.24 C103.414,76.583 102.883,76.053 102.226,76.053 L65.828,76.053 C66.002,76.835 66.152,77.625 66.268,78.427 L102.226,78.427 L102.226,78.428 Z M103.413,52.313 C103.413,51.659 102.882,51.125 102.225,51.125 L53.56,51.125 C52.902,51.125 52.372,51.658 52.372,52.313 C52.372,52.969 52.901,53.502 53.56,53.502 L102.226,53.502 C102.882,53.502 103.413,52.969 103.413,52.313 Z M58.64,61.811 L102.226,61.811 C102.882,61.811 103.414,61.278 103.414,60.623 C103.414,59.967 102.883,59.435 102.226,59.435 L56.363,59.435 C57.161,60.188 57.921,60.981 58.64,61.811 Z M102.226,70.119 C102.884,70.119 103.414,69.588 103.414,68.931 C103.414,68.274 102.885,67.743 102.226,67.743 L62.742,67.743 C63.157,68.516 63.539,69.31 63.892,70.118 L102.226,70.118 L102.226,70.119 Z M102.227,42.817 L53.56,42.817 C52.904,42.817 52.371,43.347 52.371,44.004 C52.371,44.661 52.904,45.192 53.56,45.192 L102.227,45.192 C102.884,45.192 103.414,44.66 103.414,44.004 C103.414,43.348 102.884,42.817 102.227,42.817 Z M103.413,85.549 C103.413,84.895 102.884,84.363 102.225,84.363 L66.584,84.363 C66.557,85.162 66.504,85.955 66.418,86.738 L102.225,86.738 C102.884,86.738 103.413,86.207 103.413,85.549 Z"/>
    <path fill="url(#b)" fill-rule="nonzero" d="M-0.452,83.176 C-0.45,64.166 14.96,48.754 33.972,48.752 L33.972,48.752 C52.984,48.754 68.396,64.165 68.396,83.176 L68.396,83.176 C68.396,102.187 52.984,117.598 33.972,117.599 L33.972,117.599 C14.96,117.598 -0.45,102.186 -0.452,83.176 L-0.452,83.176 Z M12.149,61.354 C6.561,66.944 3.11,74.65 3.108,83.176 L3.108,83.176 C3.11,91.702 6.561,99.407 12.149,104.998 L12.149,104.998 C17.74,110.586 25.444,114.037 33.971,114.037 L33.971,114.037 C42.5,114.037 50.203,110.586 55.795,104.998 L55.795,104.998 C61.381,99.407 64.834,91.702 64.834,83.176 L64.834,83.176 C64.834,74.65 61.381,66.944 55.795,61.354 L55.795,61.354 C50.203,55.764 42.5,52.316 33.971,52.313 L33.971,52.313 C25.444,52.315 17.74,55.764 12.149,61.354 L12.149,61.354 Z"/>
    <path fill="url(#c)" fill-rule="nonzero" d="M32.784,61.143 L32.784,59.511 C32.784,58.854 33.315,58.323 33.972,58.323 L33.972,58.323 C34.628,58.323 35.16,58.854 35.16,59.511 L35.16,59.511 L35.16,61.143 C35.16,61.797 34.629,62.33 33.972,62.33 L33.972,62.33 C33.315,62.329 32.784,61.797 32.784,61.143 L32.784,61.143 Z"/>
    <path fill="url(#d)" fill-rule="nonzero" d="M32.786,106.843 L32.786,105.21 C32.786,104.554 33.315,104.022 33.974,104.022 L33.974,104.022 C34.628,104.022 35.161,104.553 35.161,105.21 L35.161,105.21 L35.161,106.843 C35.161,107.498 34.629,108.031 33.974,108.031 L33.974,108.031 C33.315,108.03 32.786,107.498 32.786,106.843 L32.786,106.843 Z"/>
    <path fill="url(#e)" fill-rule="nonzero" d="M18.442,69.326 L16.397,67.281 C15.934,66.816 15.934,66.064 16.397,65.6 L16.397,65.6 C16.861,65.138 17.614,65.138 18.077,65.6 L18.077,65.6 L20.12,67.646 C20.585,68.109 20.585,68.862 20.12,69.326 L20.12,69.326 C19.89,69.556 19.587,69.674 19.282,69.674 L19.282,69.674 C18.979,69.674 18.675,69.557 18.442,69.326 L18.442,69.326 Z"/>
    <path fill="url(#f)" fill-rule="nonzero" d="M49.868,100.75 L47.823,98.704 C47.358,98.24 47.358,97.489 47.823,97.026 L47.823,97.026 C48.286,96.561 49.038,96.561 49.501,97.026 L49.501,97.026 L51.546,99.07 C52.009,99.535 52.009,100.286 51.546,100.75 L51.546,100.75 C51.314,100.982 51.011,101.098 50.706,101.098 L50.706,101.098 C50.402,101.098 50.099,100.982 49.868,100.75 L49.868,100.75 Z"/>
    <path fill="url(#g)" fill-rule="nonzero" d="M10.306,84.363 C9.65,84.363 9.118,83.832 9.118,83.175 L9.118,83.175 C9.118,82.519 9.649,81.987 10.306,81.987 L10.306,81.987 L11.939,81.987 C12.594,81.987 13.125,82.518 13.125,83.175 L13.125,83.175 C13.125,83.831 12.595,84.363 11.939,84.363 L11.939,84.363 L10.306,84.363 L10.306,84.363 Z"/>
    <path fill="url(#h)" fill-rule="nonzero" d="M56.006,84.363 C55.351,84.363 54.819,83.832 54.819,83.175 L54.819,83.175 C54.819,82.519 55.35,81.987 56.006,81.987 L56.006,81.987 L57.639,81.987 C58.294,81.987 58.827,82.518 58.827,83.175 L58.827,83.175 C58.827,83.831 58.295,84.363 57.639,84.363 L57.639,84.363 L56.006,84.363 L56.006,84.363 Z"/>
    <path fill="url(#i)" fill-rule="nonzero" d="M16.398,100.75 C15.934,100.287 15.934,99.535 16.398,99.07 L16.398,99.07 L18.444,97.025 C18.907,96.563 19.658,96.563 20.122,97.025 L20.122,97.025 C20.586,97.49 20.586,98.24 20.122,98.705 L20.122,98.705 L18.077,100.75 C17.845,100.982 17.54,101.098 17.237,101.098 L17.237,101.098 C16.934,101.098 16.63,100.982 16.398,100.75 L16.398,100.75 Z"/>
    <path fill="url(#j)" fill-rule="nonzero" d="M47.823,69.325 C47.359,68.863 47.359,68.111 47.823,67.647 L47.823,67.647 L49.866,65.6 C50.331,65.138 51.083,65.137 51.546,65.6 L51.546,65.6 C52.009,66.065 52.009,66.816 51.546,67.279 L51.546,67.279 L49.501,69.325 C49.269,69.556 48.966,69.674 48.661,69.674 L48.661,69.674 C48.358,69.674 48.054,69.557 47.823,69.325 L47.823,69.325 Z"/>
    <path fill="url(#k)" fill-rule="nonzero" d="M32.192,83.176 L32.192,69.303 C32.192,68.321 32.987,67.522 33.971,67.522 L33.971,67.522 C34.955,67.522 35.752,68.321 35.752,69.303 L35.752,69.303 L35.752,83.176 C35.752,84.16 34.955,84.957 33.971,84.957 L33.971,84.957 C32.987,84.957 32.192,84.16 32.192,83.176 L32.192,83.176 Z"/>
    <path fill="url(#l)" fill-rule="nonzero" d="M33.972,84.957 C32.988,84.957 32.193,84.16 32.193,83.176 L32.193,83.176 C32.193,82.194 32.988,81.395 33.972,81.395 L33.972,81.395 L47.846,81.395 C48.829,81.395 49.626,82.194 49.626,83.176 L49.626,83.176 C49.626,84.16 48.829,84.957 47.846,84.957 L47.846,84.957 L33.972,84.957 L33.972,84.957 Z"/>
  </g>
</svg>
