<svg xmlns="http://www.w3.org/2000/svg" width="147" height="152" viewBox="0 0 147 152">
  <path fill="#9DAABE" d="M94.91,137.709007 C94.578,137.377007 94.118,137.187007 93.652,137.187007 L88.156,137.187007 L88.156,129.872007 C88.156,129.404007 87.966,128.946007 87.634,128.613007 C87.302,128.284007 86.843,128.092007 86.375,128.092007 L72.35,128.092007 L72.35,50.3500072 L72.35,50.3450072 L72.35,49.1690072 L123.706,49.1700072 L123.706,59.2180072 L106.426,59.2180072 C105.957,59.2180072 105.498,59.4070072 105.167,59.7390072 C104.835,60.0720072 104.646,60.5290072 104.646,61.0010072 L104.646,70.0960072 C104.646,70.5650072 104.836,71.0240072 105.167,71.3550072 C105.498,71.6870072 105.957,71.8770072 106.426,71.8770072 L144.629,71.8770072 C145.098,71.8770072 145.558,71.6870072 145.889,71.3550072 C146.219,71.0240072 146.41,70.5650072 146.41,70.0960072 L146.41,61.0010072 C146.41,60.5310072 146.219,60.0720072 145.889,59.7390072 C145.558,59.4090072 145.098,59.2180072 144.629,59.2180072 L127.266,59.2180072 L127.266,49.1700072 L144.586,49.1700072 C145.345,49.1700072 146.02,48.6890072 146.268,47.9750072 C146.518,47.2590072 146.287,46.4650072 145.691,45.9940072 L118.858,24.7310072 C118.543,24.4800072 118.157,24.3470072 117.753,24.3470072 L71.731,24.3470072 L61.488,1.06300718 C61.202,0.41400718 60.562,-0.00199282043 59.853,7.17956855e-06 C59.144,0.00200717957 58.506,0.42200718 58.224,1.07300718 L48.138,24.3480072 L16.902,24.3480072 C16.434,24.3480072 15.976,24.5370072 15.644,24.8690072 L0.75,39.7640072 C0.418,40.0950072 0.229,40.5530072 0.229,41.0230072 L0.229,47.3900072 C0.229,47.8590072 0.418,48.3190072 0.75,48.6500072 C1.081,48.9810072 1.539,49.1710072 2.009,49.1710072 L17.284,49.1710072 L17.284,58.9610072 L1.781,58.9610072 C1.312,58.9610072 0.853,59.1510072 0.521,59.4820072 C0.191,59.8160072 0,60.2730072 0,60.7410072 L0,69.8380072 C0,70.3070072 0.191,70.7670072 0.521,71.0980072 C0.853,71.4290072 1.312,71.6200072 1.781,71.6200072 L36.346,71.6200072 C36.815,71.6200072 37.274,71.4290072 37.604,71.0980072 C37.936,70.7670072 38.126,70.3070072 38.126,69.8380072 L38.126,60.7410072 C38.126,60.2740072 37.936,59.8160072 37.604,59.4820072 C37.274,59.1510072 36.815,58.9610072 36.346,58.9610072 L20.845,58.9610072 L20.845,49.1710072 L47.527,49.1710072 L47.527,128.091007 L33.618,128.091007 C33.149,128.091007 32.69,128.280007 32.358,128.612007 C32.025,128.945007 31.836,129.403007 31.836,129.871007 L31.836,137.186007 L26.341,137.186007 C25.871,137.186007 25.413,137.376007 25.081,137.708007 C24.75,138.040007 24.56,138.497007 24.56,138.967007 L24.56,150.220007 C24.56,151.202007 25.357,151.999007 26.341,151.999007 C27.325,151.999007 28.122,151.202007 28.122,150.220007 L28.122,140.748007 L91.87,140.748007 L91.87,150.220007 C91.87,151.202007 92.668,151.999007 93.651,151.999007 C94.633,151.999007 95.432,151.202007 95.432,150.220007 L95.43,138.967007 C95.431,138.498007 95.242,138.041007 94.91,137.709007 Z M142.85,62.7810072 L142.85,68.3140072 L108.208,68.3140072 L108.208,62.7810072 L142.85,62.7810072 L142.85,62.7810072 Z M72.35,27.9080072 L117.136,27.9080072 L139.475,45.6100072 L72.35,45.6100072 L72.35,27.9080072 Z M59.87,6.23000718 L63.047,13.4510072 L53.145,21.7490072 L59.87,6.23000718 Z M63.793,15.1490072 L68.232,25.2380072 L51.756,25.2380072 L63.793,15.1490072 Z M68.789,28.7740072 L68.789,42.9300072 L51.84,42.9300072 L68.789,28.7740072 Z M51.088,27.0180072 L68.115,27.0180072 L51.088,41.2370072 L51.088,27.0180072 Z M51.087,48.3800072 L51.087,48.3750072 L51.087,44.7100072 L68.788,44.7100072 L68.788,45.0800072 L51.087,62.7830072 L51.087,48.3800072 Z M68.788,47.5990072 L68.788,64.9290072 L51.457,64.9290072 L68.788,47.5990072 Z M51.087,66.7110072 L68.418,66.7110072 L51.087,84.0430072 L51.087,66.7110072 Z M68.788,68.8600072 L68.788,86.1910072 L51.457,86.1910072 L68.788,68.8600072 Z M51.087,87.9730072 L68.42,87.9730072 L51.087,105.307007 L51.087,87.9730072 Z M68.788,90.1210072 L68.788,107.453007 L51.457,107.453007 L68.788,90.1210072 Z M51.087,109.234007 L68.42,109.234007 L51.087,126.567007 L51.087,109.234007 Z M68.788,111.385007 L68.788,127.826007 L52.347,127.826007 L68.788,111.385007 Z M34.566,62.5220072 L34.566,68.0570072 L3.562,68.0570072 L3.562,62.5220072 L34.566,62.5220072 L34.566,62.5220072 Z M3.788,45.6100072 L3.788,41.7600072 L17.641,27.9080072 L47.528,27.9080072 L47.528,45.6100072 L3.788,45.6100072 Z M84.593,137.187007 L35.399,137.187007 L35.399,131.653007 L84.593,131.653007 L84.593,137.187007 Z M146.411,89.0880072 L140.953,89.0880072 L140.953,103.326007 C140.953,104.331007 140.139,105.144007 139.134,105.144007 L130.039,105.144007 C129.035,105.144007 128.221,104.331007 128.221,103.326007 L128.221,89.0880072 L122.763,89.0880072 L122.763,103.326007 C122.763,104.331007 121.949,105.144007 120.945,105.144007 L111.848,105.144007 C110.844,105.144007 110.03,104.331007 110.03,103.326007 L110.03,89.0880072 L104.571,89.0880072 L104.571,150.070007 C104.571,151.076007 105.386,151.889007 106.391,151.889007 L144.594,151.889007 C145.599,151.889007 146.413,151.076007 146.413,150.070007 L146.411,89.0880072 Z M122.762,145.168007 C122.762,146.173007 121.948,146.986007 120.944,146.986007 L111.847,146.986007 C110.843,146.986007 110.029,146.173007 110.029,145.168007 L110.029,131.523007 C110.029,130.519007 110.843,129.705007 111.847,129.705007 L120.944,129.705007 C121.948,129.705007 122.762,130.519007 122.762,131.523007 L122.762,145.168007 Z M122.762,124.247007 C122.762,125.252007 121.948,126.066007 120.944,126.066007 L111.847,126.066007 C110.843,126.066007 110.029,125.252007 110.029,124.247007 L110.029,110.603007 C110.029,109.597007 110.843,108.784007 111.847,108.784007 L120.944,108.784007 C121.948,108.784007 122.762,109.597007 122.762,110.603007 L122.762,124.247007 Z M140.953,145.168007 C140.953,146.173007 140.139,146.986007 139.134,146.986007 L130.039,146.986007 C129.035,146.986007 128.221,146.173007 128.221,145.168007 L128.221,131.523007 C128.221,130.519007 129.035,129.705007 130.039,129.705007 L139.134,129.705007 C140.139,129.705007 140.953,130.519007 140.953,131.523007 L140.953,145.168007 Z M140.953,124.247007 C140.953,125.252007 140.139,126.066007 139.134,126.066007 L130.039,126.066007 C129.035,126.066007 128.221,125.252007 128.221,124.247007 L128.221,110.603007 C128.221,109.597007 129.035,108.784007 130.039,108.784007 L139.134,108.784007 C140.139,108.784007 140.953,109.597007 140.953,110.603007 L140.953,124.247007 Z M37.604,85.6500072 C37.937,85.3190072 38.127,84.8600072 38.127,84.3910072 L38.127,75.2940072 C38.127,74.8250072 37.937,74.3670072 37.604,74.0370072 C37.273,73.7040072 36.815,73.5140072 36.346,73.5140072 L1.781,73.5140072 C1.313,73.5140072 0.854,73.7040072 0.522,74.0370072 C0.19,74.3680072 0,74.8260072 0,75.2950072 L0,84.3920072 C0,84.8620072 0.19,85.3200072 0.522,85.6510072 C0.853,85.9830072 1.312,86.1730072 1.78,86.1730072 L36.346,86.1730072 C36.815,86.1730072 37.273,85.9820072 37.604,85.6500072 Z M34.566,82.6100072 L3.562,82.6100072 L3.562,77.0760072 L34.567,77.0760072 L34.567,82.6100072 L34.566,82.6100072 Z"/>
</svg>
