<svg xmlns="http://www.w3.org/2000/svg" width="153" height="143" viewBox="0 0 153 143">
  <defs>
    <linearGradient id="a" x1="0%" x2="100.001%" y1="50.001%" y2="50.001%">
      <stop stop-color="#009EAE" offset="0%"/>
      <stop stop-color="#0076B0" offset="100%"/>
    </linearGradient>
  </defs>
  <path fill="url(#a)" d="M56.54,87.494 L43.964,87.494 C42.888,87.494 42.017,88.364 42.017,89.44 C42.017,90.516 42.888,91.39 43.964,91.39 L56.54,91.39 C57.614,91.39 58.487,90.516 58.487,89.44 C58.487,88.364 57.614,87.494 56.54,87.494 Z M116.884,70.605 L103.558,70.605 C99.473,70.605 95.552,71.302 91.898,72.567 C92.445,70.17 92.816,67.818 93.068,65.636 L98.007,65.636 C98.52,65.636 99.023,65.427 99.384,65.065 C99.747,64.701 99.956,64.201 99.956,63.686 L99.956,54.007 C99.956,53.492 99.747,52.991 99.384,52.631 C99.023,52.267 98.52,52.06 98.007,52.06 L93.568,52.06 C93.572,51.753 93.574,51.425 93.574,51.06 C93.574,49.372 93.516,47.087 93.291,44.466 L93.281,44.075 L93.281,44.072 L93.279,44.012 C93.279,43.952 93.259,43.897 93.254,43.837 C93.246,43.783 93.241,43.727 93.229,43.674 C93.219,43.62 93.219,43.564 93.205,43.513 C92.53,36.801 90.809,28.168 86.077,21.492 C84.091,18.705 81.755,16.407 79.266,14.506 L79.266,13.158 C79.198,9.443 76.518,6.23 72.895,5.396 L72.489,7.3 L72.893,5.394 L71.947,5.194 C71.476,5.092 71.002,5.043 70.534,5.043 C68.971,5.037 67.479,5.631 66.423,6.703 C66.12,7.008 65.86,7.349 65.636,7.717 C64.133,7.262 62.67,6.891 61.284,6.592 L61.17,6.571 C61.013,6.547 60.87,6.525 60.735,6.504 C60.563,2.91 57.607,0.049 53.973,0.048 L46.535,0.048 C42.967,0.049 40.051,2.805 39.783,6.305 L38.666,6.603 C37.258,6.908 35.771,7.289 34.242,7.754 C34.013,7.373 33.748,7.018 33.435,6.705 C32.376,5.631 30.886,5.037 29.322,5.043 C28.86,5.043 28.381,5.092 27.898,5.195 L27.898,5.197 L26.964,5.394 C23.337,6.23 20.657,9.443 20.589,13.158 L20.589,14.613 C18.155,16.496 15.872,18.758 13.923,21.492 C9.192,28.168 7.471,36.801 6.794,43.513 C6.749,43.672 6.723,43.838 6.718,44.011 L6.708,44.462 C6.482,47.086 6.423,49.37 6.423,51.059 C6.423,51.424 6.425,51.752 6.431,52.059 L2.495,52.059 C1.983,52.059 1.481,52.266 1.12,52.627 C0.757,52.99 0.548,53.491 0.548,54.006 L0.548,63.685 C0.548,64.2 0.757,64.7 1.12,65.064 C1.481,65.426 1.983,65.635 2.495,65.635 L7.434,65.635 C8.184,72.114 9.955,80.076 14.385,86.327 C20.045,94.256 28.406,98.242 35.549,100.275 C42.705,102.309 48.729,102.416 50.031,102.418 L50.47,102.418 C51.772,102.416 57.794,102.31 64.952,100.275 C66.147,99.935 67.377,99.531 68.622,99.07 C68.145,101.396 67.893,103.802 67.893,106.267 C67.893,108.359 68.077,110.409 68.424,112.402 C64.998,112.103 61.346,110.712 58.486,109.27 C56.863,108.458 55.49,107.639 54.531,107.033 C54.051,106.726 53.676,106.474 53.422,106.302 C53.172,106.127 53.057,106.043 53.057,106.043 C52.397,105.56 51.506,105.538 50.827,105.992 C50.145,106.444 49.821,107.274 50.01,108.068 C50.06,108.262 51.122,112.592 55.154,117.556 C59.101,122.427 65.965,127.857 77.258,130.385 C79.781,133.15 82.731,135.519 86.004,137.384 C91.181,140.335 97.181,142.027 103.557,142.027 L116.883,142.027 C136.588,142.021 152.545,125.961 152.547,106.267 C152.546,86.572 136.581,70.607 116.884,70.605 Z M79.265,39.385 L79.265,31.471 L79.266,19.604 C80.579,20.835 81.802,22.211 82.904,23.755 C86.577,28.877 88.34,35.941 89.106,41.943 C86.81,41.637 83.093,40.945 79.26,39.517 C79.261,39.475 79.265,39.429 79.265,39.385 Z M68.661,10.906 C68.661,10.849 68.671,10.806 68.675,10.754 C68.681,10.661 68.683,10.572 68.701,10.463 C68.704,10.447 68.702,10.433 68.704,10.418 C68.784,9.984 68.962,9.68 69.186,9.448 C69.493,9.146 69.913,8.944 70.532,8.939 C70.716,8.939 70.917,8.96 71.136,9.005 L72.082,9.207 C73.792,9.506 75.438,11.536 75.37,13.159 L75.37,15.46 C75.37,15.46 75.368,15.474 75.368,15.481 L75.368,37.792 C73.618,36.872 71.94,35.769 70.456,34.455 C70.445,34.446 70.434,34.435 70.422,34.425 C70.405,34.411 70.391,34.396 70.375,34.381 C70.085,34.121 69.802,33.848 69.526,33.558 C69.514,33.547 69.505,33.535 69.493,33.523 C69.212,33.224 68.936,32.912 68.671,32.586 C68.667,32.581 68.664,32.577 68.661,32.573 L68.661,10.906 Z M64.765,11.525 L64.765,25.624 C63.882,23.4 63.197,21.079 62.684,18.882 C62.019,16.082 61.609,13.504 61.324,11.594 C61.269,11.224 61.22,10.887 61.174,10.569 C62.333,10.834 63.532,11.145 64.765,11.525 Z M43.649,6.829 C43.653,5.236 44.942,3.95 46.534,3.945 L53.972,3.945 C55.564,3.95 56.849,5.236 56.853,6.829 L56.853,32.403 C56.852,33.199 56.529,33.919 56.007,34.439 C55.486,34.961 54.767,35.284 53.972,35.285 L46.534,35.285 C45.255,35.284 44.184,34.445 43.805,33.293 C43.713,33.012 43.651,32.717 43.649,32.404 L43.649,7.81 L43.649,7.807 L43.649,6.829 Z M35.091,11.568 C36.521,11.121 37.91,10.766 39.241,10.472 C39.122,11.243 38.99,12.15 38.822,13.187 C38.237,17.002 37.134,22.375 35.091,27.051 L35.091,11.568 Z M24.485,13.16 C24.417,11.537 26.061,9.507 27.772,9.208 L28.716,9.008 L28.311,7.101 L28.727,9.004 C28.934,8.96 29.131,8.94 29.321,8.94 C29.94,8.945 30.36,9.147 30.667,9.45 C30.897,9.686 31.077,10.005 31.155,10.456 L31.155,10.483 C31.157,10.49 31.157,10.495 31.157,10.501 C31.178,10.628 31.192,10.759 31.194,10.907 L31.194,33.319 C31.054,33.474 30.911,33.622 30.766,33.768 C30.556,33.979 30.346,34.192 30.125,34.387 C30.109,34.4 30.096,34.414 30.08,34.428 C30.058,34.449 30.032,34.465 30.009,34.487 C29.581,34.865 29.136,35.223 28.678,35.565 C28.477,35.717 28.268,35.855 28.063,35.999 C27.768,36.206 27.473,36.412 27.17,36.604 C26.94,36.751 26.703,36.891 26.468,37.032 C26.176,37.206 25.881,37.377 25.582,37.541 C25.342,37.672 25.102,37.8 24.859,37.925 C24.734,37.988 24.609,38.046 24.484,38.109 L24.484,13.16 L24.485,13.16 Z M24.184,42.535 C24.468,42.416 24.749,42.293 25.035,42.166 C25.168,42.105 25.301,42.044 25.435,41.981 C27.013,41.247 28.585,40.377 30.089,39.342 C30.97,38.738 31.827,38.081 32.646,37.359 C32.654,37.351 32.662,37.347 32.668,37.341 C32.675,37.333 32.682,37.325 32.69,37.319 C32.849,37.175 32.997,37.022 33.151,36.874 C33.378,36.656 33.605,36.439 33.819,36.212 C33.915,36.111 34.005,36.006 34.097,35.901 C34.277,35.703 34.462,35.506 34.635,35.301 C34.666,35.263 34.691,35.218 34.719,35.179 C36.981,32.447 38.584,29.177 39.752,25.875 L39.752,32.402 C39.753,33.09 39.857,33.755 40.049,34.38 C40.246,35.031 40.539,35.642 40.912,36.193 C41.32,36.799 41.83,37.331 42.408,37.775 C43.551,38.654 44.978,39.181 46.531,39.183 L53.97,39.183 C55.46,39.181 56.833,38.695 57.951,37.88 C58.589,37.415 59.147,36.848 59.589,36.192 C59.726,35.991 59.847,35.779 59.962,35.563 C60.461,34.62 60.747,33.545 60.747,32.402 L60.747,26.036 C61.804,28.924 63.195,31.787 65.066,34.281 C65.096,34.33 65.124,34.38 65.159,34.427 C65.241,34.534 65.327,34.639 65.413,34.745 C65.476,34.826 65.539,34.906 65.602,34.985 C65.913,35.368 66.235,35.74 66.572,36.1 C66.618,36.149 66.665,36.197 66.71,36.245 C67.058,36.608 67.415,36.964 67.792,37.3 C67.807,37.313 67.819,37.327 67.833,37.341 C67.854,37.359 67.876,37.373 67.896,37.391 C68.332,37.775 68.779,38.134 69.232,38.483 C69.236,38.487 69.239,38.489 69.244,38.493 C69.402,38.615 69.56,38.738 69.722,38.857 C71.83,40.402 74.102,41.609 76.346,42.556 C76.37,42.566 76.397,42.57 76.422,42.58 C81.684,44.798 86.801,45.602 89.424,45.893 L89.561,52.057 L77.041,52.057 L77.041,49.164 C77.041,48.529 76.581,47.987 75.955,47.885 L66.276,46.272 C65.9,46.209 65.513,46.313 65.221,46.561 C64.93,46.807 64.763,47.171 64.763,47.552 L64.763,52.057 L35.738,52.057 L35.738,47.552 C35.738,47.171 35.57,46.807 35.279,46.561 C34.988,46.313 34.601,46.209 34.226,46.272 L24.546,47.885 C23.919,47.988 23.46,48.53 23.46,49.164 L23.46,52.057 L10.94,52.057 L11.077,45.893 C13.72,45.602 18.888,44.787 24.184,42.535 Z M74.444,50.268 L74.444,52.059 L67.36,52.059 L67.36,49.086 L74.444,50.268 Z M33.144,49.086 L33.144,52.059 L26.06,52.059 L26.06,50.268 L33.144,49.086 Z M17.097,23.755 C18.157,22.267 19.331,20.935 20.589,19.736 L20.589,39.384 C20.589,39.506 20.599,39.624 20.606,39.743 C19.229,40.231 17.873,40.636 16.605,40.949 C14.453,41.483 12.549,41.79 11.195,41.964 C11.086,41.977 10.988,41.989 10.885,42.003 C11.647,35.986 13.411,28.895 17.097,23.755 Z M4.444,61.74 L4.444,55.955 L8.43,55.955 C8.434,55.955 8.438,55.957 8.444,55.957 L91.554,55.957 C91.559,55.957 91.563,55.955 91.567,55.955 L96.059,55.955 L96.059,61.74 L86.596,61.74 C86.592,61.74 86.59,61.738 86.588,61.738 L13.914,61.738 C13.91,61.738 13.908,61.74 13.906,61.74 L4.444,61.74 Z M81.878,65.637 L78.562,68.948 L78.416,69.112 C78.158,69.495 76.939,70.279 75.107,70.878 C69.581,72.778 59.062,73.769 50.455,73.754 C50.381,73.754 50.321,73.755 50.278,73.756 C50.166,73.754 50.089,73.756 50.049,73.756 C44.299,73.756 37.735,73.336 32.332,72.474 C29.635,72.044 27.225,71.501 25.396,70.878 C23.564,70.279 22.347,69.495 22.089,69.112 L21.943,68.948 L18.627,65.637 L81.878,65.637 Z M63.888,96.531 C57.255,98.424 51.539,98.527 50.472,98.525 C50.339,98.525 50.284,98.523 50.284,98.523 L50.235,98.523 C50.235,98.523 50.171,98.523 50.032,98.525 C48.962,98.527 43.249,98.421 36.615,96.531 C29.966,94.642 22.481,90.99 17.558,84.069 C13.832,78.875 12.085,71.675 11.35,65.636 L13.11,65.636 L19.126,71.639 C20.335,73.036 22.046,73.827 24.142,74.564 C30.547,76.723 41.121,77.636 50.048,77.649 L50.454,77.649 C56.393,77.648 63.1,77.223 68.784,76.319 C71.628,75.865 74.212,75.295 76.362,74.564 C78.45,73.828 80.157,73.043 81.364,71.652 L87.393,65.636 L89.153,65.636 C88.811,68.446 88.245,71.505 87.366,74.496 C79.303,78.615 73.015,85.704 69.951,94.329 C67.916,95.245 65.866,95.969 63.888,96.531 Z M139.345,128.782 C133.589,134.558 125.659,138.131 116.884,138.133 L103.558,138.133 C97.87,138.133 92.548,136.63 87.933,134.002 C84.848,132.244 82.083,129.981 79.751,127.33 C79.475,127.016 79.097,126.799 78.69,126.711 C67.872,124.407 61.724,119.445 58.175,115.1 C57.457,114.215 56.847,113.356 56.332,112.547 C56.469,112.617 56.605,112.688 56.745,112.757 C60.291,114.52 64.969,116.345 69.787,116.361 C70.176,116.359 70.568,116.347 70.957,116.322 C71.534,116.283 72.061,115.994 72.402,115.528 C72.744,115.061 72.857,114.472 72.72,113.912 C72.116,111.459 71.79,108.902 71.79,106.269 C71.79,97.491 75.342,89.561 81.094,83.806 C86.85,78.054 94.779,74.503 103.556,74.501 L116.882,74.501 C125.661,74.503 133.591,78.054 139.346,83.806 C145.098,89.561 148.65,97.491 148.65,106.269 C148.651,115.049 145.098,123.004 139.345,128.782 Z M127.274,101.268 C124.485,101.268 122.223,103.529 122.223,106.317 C122.223,109.106 124.485,111.366 127.274,111.366 C130.063,111.366 132.322,109.106 132.323,106.317 C132.322,103.528 130.063,101.268 127.274,101.268 Z M127.274,108.77 C125.92,108.768 124.824,107.673 124.821,106.317 C124.824,104.964 125.921,103.866 127.274,103.866 C128.627,103.866 129.723,104.965 129.725,106.317 C129.724,107.673 128.628,108.768 127.274,108.77 Z M110.223,101.268 C107.432,101.268 105.173,103.529 105.173,106.317 C105.173,109.106 107.432,111.366 110.223,111.366 C113.011,111.366 115.272,109.108 115.272,106.317 C115.271,103.528 113.011,101.268 110.223,101.268 Z M110.223,108.77 C108.869,108.768 107.773,107.673 107.769,106.317 C107.773,104.964 108.869,103.866 110.223,103.866 C111.577,103.866 112.671,104.965 112.676,106.317 C112.671,107.671 111.576,108.768 110.223,108.77 Z M93.171,101.268 C90.38,101.27 88.12,103.528 88.12,106.319 C88.12,109.107 90.38,111.367 93.171,111.367 C95.959,111.367 98.22,109.107 98.22,106.319 C98.22,103.527 95.959,101.27 93.171,101.268 Z M93.171,108.77 C91.816,108.769 90.72,107.671 90.716,106.319 C90.72,104.965 91.816,103.868 93.171,103.866 C94.524,103.868 95.619,104.965 95.624,106.319 C95.619,107.671 94.523,108.769 93.171,108.77 Z"/>
</svg>
