<svg xmlns="http://www.w3.org/2000/svg" width="148" height="153" viewBox="0 0 148 153">
  <defs>
    <linearGradient id="a" x1="0%" y1="50%" y2="50%">
      <stop stop-color="#009EAE" offset="0%"/>
      <stop stop-color="#0076B0" offset="100%"/>
    </linearGradient>
  </defs>
  <path fill="url(#a)" d="M146.626,27.036 C146.066,26.697 145.376,26.677 144.798,26.98 L131.425,33.996 C131.426,33.847 131.437,33.701 131.437,33.551 C131.435,15.036 116.428,0.028 97.912,0.026 C79.396,0.028 64.389,15.037 64.387,33.551 C64.387,33.701 64.398,33.847 64.399,33.996 L51.025,26.98 C50.486,26.695 49.837,26.695 49.296,26.98 L1.546,52.029 C0.93,52.351 0.548,52.982 0.548,53.677 L0.548,150.164 C0.548,150.815 0.888,151.418 1.447,151.754 C1.744,151.935 2.076,152.025 2.409,152.025 C2.705,152.025 3.001,151.953 3.274,151.81 L50.161,127.214 L97.048,151.81 C97.587,152.093 98.236,152.093 98.777,151.81 L146.527,126.761 C147.14,126.439 147.523,125.808 147.523,125.115 L147.523,28.628 C147.522,27.975 147.185,27.373 146.626,27.036 Z M48.92,117.365 L46.705,118.525 L33.721,125.334 L26.219,74.396 L48.921,62.486 L48.921,117.365 L48.92,117.365 Z M48.92,52.684 L41.896,56.368 L37.639,43.597 L48.92,37.68 L48.92,52.684 Z M48.92,34.881 L35.553,41.892 C35.017,42.172 34.763,42.806 34.954,43.382 L40.005,58.535 C40.119,58.881 40.381,59.158 40.717,59.294 C41.053,59.431 41.434,59.41 41.756,59.242 L48.92,55.484 L48.92,59.685 L24.286,72.609 C23.819,72.853 23.558,73.363 23.634,73.888 L31.521,127.426 C31.578,127.824 31.827,128.168 32.185,128.351 C32.362,128.441 32.555,128.486 32.747,128.486 C32.945,128.486 33.143,128.439 33.325,128.344 L47.858,120.72 L48.92,120.163 L48.92,123.665 L4.27,147.085 L4.27,54.802 L48.92,31.376 L48.92,34.881 L48.92,34.881 Z M51.4,31.378 L64.578,38.291 C64.669,39.54 64.794,40.771 64.95,41.988 L51.4,34.879 L51.4,31.378 Z M51.4,37.68 L65.411,45.03 C66.591,51.739 68.709,57.906 71.315,63.456 L51.4,52.693 L51.4,37.68 Z M51.4,55.514 L73.239,67.314 C74.409,69.501 75.645,71.565 76.91,73.524 L51.4,59.698 L51.4,55.514 Z M96.671,141.116 L64.786,124.496 L96.671,122.81 L96.671,141.116 Z M96.671,120.328 L60.12,122.259 C59.563,122.288 59.093,122.69 58.975,123.235 C58.854,123.781 59.118,124.34 59.613,124.598 L96.671,143.914 L96.671,147.412 L51.4,123.666 L51.4,119.279 L96.671,116.447 L96.671,120.328 L96.671,120.328 Z M96.671,113.961 L51.4,116.795 L51.4,62.518 L79.997,78.018 C80.194,78.289 80.392,78.57 80.589,78.834 C88.142,88.953 95.663,94.952 96.671,95.736 L96.671,113.961 Z M98.072,91.818 C98.016,91.864 97.963,91.909 97.91,91.953 C95.29,89.761 88.522,83.689 82.117,74.607 C74.865,64.329 68.104,50.253 68.106,33.55 C68.108,25.314 71.44,17.874 76.836,12.476 C82.234,7.08 89.674,3.747 97.91,3.746 C106.146,3.748 113.586,7.081 118.984,12.476 C124.38,17.874 127.713,25.314 127.714,33.55 C127.717,51.364 120.021,66.197 112.249,76.609 C108.368,81.81 104.48,85.892 101.573,88.664 C100.122,90.051 98.913,91.11 98.072,91.818 Z M130.411,45.029 L138.222,40.932 L138.222,78.914 L115.551,78.395 C121.81,69.912 128.031,58.57 130.411,45.029 Z M107.28,88.218 L109.688,105.441 L99.153,112.754 L99.153,95.736 C99.792,95.238 103.056,92.63 107.28,88.218 Z M99.153,122.174 L110.938,114.39 L113.614,133.524 L99.153,141.111 L99.153,122.174 Z M143.802,123.989 L99.154,147.411 L99.154,143.912 L115.539,135.314 C116.006,135.071 116.266,134.565 116.193,134.043 L113.125,112.102 C113.065,111.677 112.797,111.318 112.406,111.143 C112.019,110.967 111.57,111.004 111.213,111.238 L99.154,119.198 L99.154,115.774 L111.73,107.044 C112.113,106.777 112.316,106.317 112.251,105.853 L109.521,86.322 C109.501,86.186 109.456,86.061 109.397,85.944 C110.781,84.406 112.23,82.703 113.699,80.838 L139.435,81.427 L139.461,81.427 C139.788,81.427 140.095,81.304 140.331,81.074 C140.569,80.84 140.702,80.523 140.702,80.188 L140.702,38.884 C140.702,38.446 140.477,38.046 140.104,37.82 C139.733,37.597 139.27,37.583 138.887,37.786 L130.871,41.991 C131.027,40.775 131.152,39.543 131.243,38.294 L143.801,31.705 L143.801,123.989 L143.802,123.989 Z M7.966,76.292 C8.163,76.412 8.385,76.472 8.608,76.472 C8.805,76.472 9.003,76.424 9.184,76.329 L35.419,62.566 C35.956,62.283 36.212,61.656 36.023,61.08 L31.018,45.9 C30.904,45.556 30.641,45.274 30.305,45.138 C29.968,45.002 29.586,45.023 29.263,45.189 L8.032,56.33 C7.62,56.544 7.366,56.965 7.366,57.428 L7.366,75.231 C7.367,75.666 7.594,76.068 7.966,76.292 Z M9.848,58.178 L29.12,48.067 L33.337,60.858 L9.848,73.18 L9.848,58.178 Z M7.966,140.971 C8.163,141.09 8.384,141.149 8.607,141.149 C8.805,141.149 9.003,141.102 9.184,141.008 L28.716,130.762 C29.19,130.513 29.453,129.988 29.363,129.457 L20.466,76.447 C20.4,76.055 20.15,75.718 19.793,75.543 C19.437,75.365 19.019,75.371 18.666,75.555 L8.032,81.135 C7.62,81.351 7.366,81.771 7.366,82.235 L7.366,139.91 C7.367,140.344 7.594,140.744 7.966,140.971 Z M9.848,82.982 L18.303,78.548 L26.768,128.982 L9.848,137.856 L9.848,82.982 L9.848,82.982 Z M139.493,86.023 L115.419,85.427 C115.056,85.418 114.703,85.57 114.462,85.843 C114.221,86.114 114.109,86.48 114.161,86.839 L120.391,130.899 C120.446,131.296 120.695,131.645 121.053,131.83 C121.229,131.919 121.424,131.965 121.617,131.965 C121.816,131.965 122.013,131.918 122.193,131.824 L140.037,122.463 C140.447,122.248 140.701,121.829 140.701,121.365 L140.701,87.263 C140.702,86.59 140.167,86.039 139.493,86.023 Z M138.222,120.613 L122.601,128.808 L116.822,87.943 L138.222,88.472 L138.222,120.613 Z M114.94,32.461 C114.938,23.055 107.315,15.434 97.911,15.433 C88.505,15.434 80.884,23.055 80.884,32.461 C80.884,41.866 88.505,49.488 97.911,49.49 C107.315,49.488 114.938,41.866 114.94,32.461 Z M97.911,45.77 C90.563,45.755 84.618,39.812 84.604,32.461 C84.618,25.111 90.563,19.166 97.911,19.152 C105.259,19.166 111.205,25.111 111.22,32.461 C111.205,39.812 105.259,45.755 97.911,45.77 Z"/>
</svg>
