<svg xmlns="http://www.w3.org/2000/svg" width="148" height="153" viewBox="0 0 148 153">
  <path fill="#9DAABE" d="M146.626961,27.0131777 C146.066957,26.6741755 145.376953,26.6541753 144.798949,26.9571773 L131.425861,33.9732235 C131.426861,33.8242225 131.437861,33.6782215 131.437861,33.5282206 C131.435861,15.0130988 116.428762,0.00500001316 97.9126406,0.003 C79.3965187,0.00500001316 64.38942,15.0140988 64.38742,33.5282206 C64.38742,33.6782215 64.3984201,33.8242225 64.3994201,33.9732235 L51.0253321,26.9571773 C50.4863285,26.6721755 49.8373243,26.6721755 49.2963207,26.9571773 L1.54600657,52.0063421 C0.930002513,52.3283442 0.548,52.9593484 0.548,53.654353 L0.548,150.141988 C0.548,150.792992 0.888002237,151.395996 1.44700591,151.731998 C1.74400787,151.912999 2.07601005,152.003 2.40901224,152.003 C2.70501419,152.003 3.00101614,151.931 3.27401793,151.787999 L50.1613264,127.191837 L97.0486349,151.787999 C97.5876384,152.071 98.2366427,152.071 98.7776462,151.787999 L146.52796,126.738834 C147.140964,126.416832 147.523967,125.785828 147.523967,125.092823 L147.523967,28.6051882 C147.522967,27.9511839 147.185965,27.3501799 146.626961,27.0131777 Z M48.9203182,117.342772 L46.7053037,118.50278 L33.7212182,125.311824 L26.2191689,74.3734893 L48.9213182,62.4634109 L48.9213182,117.342772 L48.9203182,117.342772 Z M48.9203182,52.6603464 L41.896272,56.3443707 L37.639244,43.5732866 L48.9203182,37.6562477 L48.9203182,52.6603464 Z M48.9203182,34.8572293 L35.5532303,41.8682754 C35.0172268,42.1482773 34.7632251,42.7822814 34.9542264,43.3582852 L40.0052596,58.5113849 C40.1192603,58.8573872 40.3812621,59.134389 40.7172643,59.2703899 C41.0532665,59.4073908 41.434269,59.3863907 41.7562711,59.2183896 L48.9203182,55.4603649 L48.9203182,59.6613925 L24.2861562,72.5854775 C23.8191531,72.8294791 23.5581514,73.3394825 23.6341519,73.8644859 L31.5212038,127.402838 C31.5782041,127.800841 31.8272058,128.144843 32.1852081,128.327844 C32.3622093,128.417845 32.5552106,128.462845 32.7472118,128.462845 C32.9452131,128.462845 33.1432144,128.415845 33.3252156,128.320844 L47.8583113,120.696794 L48.9203182,120.13979 L48.9203182,123.641813 L4.27002449,147.061967 L4.27002449,54.7793604 L48.9203182,31.3532063 L48.9203182,34.8572293 L48.9203182,34.8572293 Z M51.4003346,31.3542063 L64.5784213,38.2672517 C64.6694219,39.51626 64.7944227,40.7472681 64.9504237,41.9642761 L51.4003346,34.8552293 L51.4003346,31.3542063 Z M51.4003346,37.6562477 L65.4114267,45.0062961 C66.5914345,51.7153402 68.7094484,57.8813808 71.3154656,63.4314173 L51.4003346,52.6703465 L51.4003346,37.6562477 Z M51.4003346,55.490365 L73.2394782,67.2904427 C74.4094859,69.4774571 75.6454941,71.5404706 76.9105024,73.5004835 L51.4003346,59.6743926 L51.4003346,55.490365 Z M96.6716324,141.093928 L64.7864226,124.473819 L96.6716324,122.787808 L96.6716324,141.093928 Z M96.6716324,120.305791 L60.1203919,122.236804 C59.5633883,122.265804 59.0933852,122.667807 58.9753844,123.212811 C58.8543836,123.758814 59.1183853,124.317818 59.6133886,124.57582 L96.6716324,143.891947 L96.6716324,147.38997 L51.4003346,123.643813 L51.4003346,119.256785 L96.6716324,116.424766 L96.6716324,120.305791 L96.6716324,120.305791 Z M96.6716324,113.93875 L51.4003346,116.772768 L51.4003346,62.4944111 L79.9975227,77.9945131 C80.194524,78.2655149 80.3925253,78.5465167 80.5895266,78.8105185 C88.1425763,88.929585 95.6636258,94.9286245 96.6716324,95.7136297 L96.6716324,113.93875 Z M98.0726416,91.7956039 C98.0166412,91.8416042 97.9636409,91.8866045 97.9106405,91.9306048 C95.2906233,89.7385904 88.5225788,83.6665504 82.1175366,74.5844907 C74.8654889,64.306423 68.1044445,50.2303304 68.1064445,33.5272206 C68.1084445,25.2911664 71.4404664,17.8511174 76.8365019,12.4530819 C82.2345374,7.05704641 89.6745864,3.72402448 97.9106405,3.72302447 C106.146695,3.72502449 113.586744,7.05804641 118.984779,12.4530819 C124.380815,17.8511174 127.713837,25.2911664 127.714837,33.5272206 C127.717837,51.3413378 120.021786,66.1744353 112.249735,76.5865038 C108.368709,81.7875381 104.480684,85.8695649 101.573665,88.6415831 C100.122655,90.0275923 98.9136471,91.0875992 98.0726416,91.7956039 Z M130.411854,45.0062961 L138.222906,40.9092691 L138.222906,78.891519 L115.551757,78.3735156 C121.810798,69.8894598 128.031839,58.5473852 130.411854,45.0062961 Z M107.280702,88.1945802 L109.688718,105.417694 L99.1536487,112.730742 L99.1536487,95.7136297 C99.7926529,95.2156264 103.056674,92.6066092 107.280702,88.1945802 Z M99.1536487,122.150804 L110.938726,114.366752 L113.614744,133.500878 L99.1536487,141.087928 L99.1536487,122.150804 Z M143.802942,123.966816 L99.1546487,147.38897 L99.1546487,143.889947 L115.539757,135.29189 C116.00676,135.048888 116.266761,134.542885 116.193761,134.020882 L113.125741,112.079737 C113.06574,111.654735 112.797738,111.295732 112.406736,111.120731 C112.019733,110.94473 111.57073,110.98173 111.213728,111.215732 L99.1546487,119.175784 L99.1546487,115.751762 L111.730731,107.021704 C112.113734,106.754702 112.316735,106.294699 112.251735,105.830696 L109.521717,86.2995677 C109.501717,86.1635668 109.456717,86.038566 109.397716,85.9215653 C110.781725,84.3835551 112.230735,82.6805439 113.699744,80.8155317 L139.435914,81.4045355 L139.461914,81.4045355 C139.788916,81.4045355 140.095918,81.2815347 140.33192,81.0515332 C140.569921,80.8175317 140.702922,80.5005296 140.702922,80.1655274 L140.702922,38.8592556 C140.702922,38.4212528 140.477921,38.0212501 140.104918,37.7952486 C139.733916,37.5722472 139.270913,37.5582471 138.88791,37.7612484 L130.871857,41.9662761 C131.027858,40.7502681 131.152859,39.51826 131.24386,38.2692518 L143.801942,31.6802084 L143.801942,123.966816 L143.802942,123.966816 Z M7.9660488,76.2695018 C8.1630501,76.3895025 8.38505156,76.4495029 8.60805303,76.4495029 C8.80505432,76.4495029 9.00305563,76.4015026 9.18405682,76.306502 L35.4192294,62.5434115 C35.9562329,62.2604096 36.2122346,61.6334055 36.0232334,61.0574017 L31.0182005,45.8773018 C30.9041997,45.5332995 30.641198,45.2512977 30.3051958,45.1152968 C29.9681936,44.9792959 29.586191,45.000296 29.2631889,45.1662971 L8.03204924,56.3073704 C7.62004653,56.5213718 7.36604486,56.9423746 7.36604486,57.4053776 L7.36604486,75.2084948 C7.36704486,75.6434976 7.59404636,76.0455003 7.9660488,76.2695018 Z M9.84806118,58.1543826 L29.120188,48.0433161 L33.3372157,60.8344002 L9.84806118,73.1564813 L9.84806118,58.1543826 Z M139.493914,86.0005658 L115.419756,85.4045619 C115.056753,85.3955618 114.703751,85.5475628 114.462749,85.8205646 C114.221748,86.0915664 114.109747,86.4575688 114.161747,86.8165711 L120.391788,130.876861 C120.446789,131.273864 120.69579,131.622866 121.053793,131.807867 C121.229794,131.896868 121.424795,131.942868 121.617797,131.942868 C121.816798,131.942868 122.013799,131.895868 122.1938,131.801867 L140.037918,122.440806 C140.44792,122.225804 140.701922,121.806801 140.701922,121.342798 L140.701922,87.2405739 C140.702922,86.5665695 140.167919,86.0165659 139.493914,86.0005658 Z M138.222906,120.590793 L122.601803,128.785847 L116.822765,87.9205784 L138.222906,88.4495819 L138.222906,120.590793 Z M7.9660488,140.947927 C8.1630501,141.066928 8.38405155,141.125928 8.60705302,141.125928 C8.80505432,141.125928 9.00305563,141.078928 9.18405682,140.984928 L28.7161853,130.73886 C29.1901884,130.489858 29.4531902,129.964855 29.3631896,129.433852 L20.466131,76.4235028 C20.4001306,76.0315002 20.150129,75.694498 19.7931266,75.5194968 C19.4371243,75.3414956 19.0191215,75.3474957 18.6661192,75.5314969 L8.03204924,81.1115336 C7.62004653,81.327535 7.36604486,81.7475378 7.36604486,82.2115408 L7.36604486,139.88692 C7.36704486,140.320923 7.59404636,140.721926 7.9660488,140.947927 Z M9.84806118,82.9595458 L18.3031168,78.5255166 L26.7681725,128.959848 L9.84806118,137.833907 L9.84806118,82.9595458 L9.84806118,82.9595458 Z M114.940753,32.4382134 C114.938753,23.0321515 107.315702,15.4111014 97.9116406,15.4101014 C88.5055787,15.4111014 80.8845285,23.0321515 80.8845285,32.4382134 C80.8845285,41.8432753 88.5055787,49.4653254 97.9116406,49.4673254 C107.315702,49.4653254 114.938753,41.8432753 114.940753,32.4382134 Z M97.9116406,45.7463009 C90.5635922,45.7313008 84.6185531,39.7882617 84.604553,32.4372134 C84.6185531,25.087165 90.5635922,19.1421259 97.9116406,19.1281258 C105.259689,19.1421259 111.205728,25.087165 111.220728,32.4372134 C111.205728,39.7882617 105.259689,45.7313008 97.9116406,45.7463009 Z"/>
</svg>
