<svg xmlns="http://www.w3.org/2000/svg" width="101" height="153" viewBox="0 0 101 153">
  <path fill="#9DAABE" d="M44.395,83.491 L55.89,83.491 C56.874,83.491 57.672,82.694 57.672,81.713 C57.672,80.727 56.874,79.932 55.89,79.932 L44.395,79.932 C43.411,79.932 42.615,80.727 42.615,81.713 C42.614,82.694 43.41,83.491 44.395,83.491 Z M75.347,116.332 L71.807,116.332 L71.807,119.873 L75.347,119.873 L75.347,116.332 Z M29.013,116.35 L25.473,116.35 L25.473,119.889 L29.013,119.889 L29.013,116.35 Z M97.188,103.838 C96.954,103.142 96.709,102.446 96.437,101.752 C96.244,101.259 96.041,100.767 95.827,100.277 C93.545,95.055 89.994,90.026 84.669,86.035 C83.11,84.867 81.4,83.788 79.522,82.821 C80.737,81.637 81.884,80.329 82.928,78.868 C86.978,73.155 88.595,65.872 89.282,59.951 L93.795,59.951 C94.266,59.951 94.724,59.762 95.055,59.431 C95.387,59.099 95.576,58.639 95.576,58.171 L95.576,49.322 C95.576,48.853 95.387,48.394 95.055,48.063 C94.724,47.732 94.266,47.541 93.795,47.541 L89.737,47.541 C89.741,47.261 89.744,46.961 89.744,46.628 C89.744,45.081 89.689,42.987 89.483,40.586 L89.475,40.242 L89.475,40.239 L89.474,40.187 C89.473,40.137 89.457,40.091 89.452,40.041 C89.444,39.984 89.439,39.926 89.426,39.871 C89.416,39.825 89.417,39.775 89.405,39.731 C88.789,33.597 87.216,25.704 82.89,19.603 C81.074,17.054 78.936,14.975 76.664,13.237 L76.664,11.984 C76.601,8.588 74.151,5.65 70.839,4.886 L70.468,6.629 L70.838,4.886 L69.973,4.702 C69.543,4.61 69.108,4.563 68.682,4.563 C67.252,4.558 65.89,5.101 64.923,6.083 C64.647,6.36 64.416,6.676 64.211,7.012 C62.834,6.595 61.495,6.254 60.225,5.981 L60.122,5.96 C59.971,5.937 59.852,5.918 59.724,5.899 C59.568,2.615 56.867,-0.001 53.543,-0.001 L46.745,-0.001 C43.481,-0.001 40.817,2.52 40.572,5.719 L39.551,5.991 C38.261,6.27 36.899,6.618 35.499,7.046 C35.291,6.698 35.055,6.369 34.77,6.083 C33.802,5.102 32.44,4.559 31.011,4.563 C30.592,4.563 30.159,4.607 29.72,4.702 L28.855,4.886 C25.541,5.65 23.091,8.587 23.029,11.984 L23.029,13.336 C20.806,15.055 18.715,17.106 16.937,19.604 C12.61,25.704 11.039,33.596 10.42,39.728 C10.378,39.874 10.354,40.028 10.35,40.186 L10.342,40.575 C10.135,42.98 10.08,45.076 10.08,46.626 C10.08,46.96 10.083,47.261 10.087,47.542 L6.49,47.542 C6.021,47.542 5.563,47.733 5.231,48.064 C4.898,48.395 4.709,48.854 4.709,49.323 L4.709,58.172 C4.709,58.641 4.898,59.1 5.231,59.432 C5.563,59.762 6.021,59.952 6.49,59.952 L11.005,59.952 C11.692,65.873 13.309,73.156 17.359,78.869 C18.447,80.393 19.65,81.75 20.923,82.973 C19.335,83.808 17.855,84.716 16.5,85.698 C10.398,90.117 6.573,95.888 4.271,101.79 C1.186,109.667 0.682,117.798 0.679,123.718 L0.679,150.224 C0.679,150.693 0.869,151.152 1.202,151.483 C1.533,151.813 1.992,152.004 2.46,152.004 L98.26,152.004 C98.727,152.004 99.187,151.814 99.518,151.483 C99.851,151.152 100.039,150.693 100.039,150.224 L100.039,149.978 C100.039,149.975 100.04,149.972 100.04,149.968 L100.04,123.718 C100.036,118.309 99.611,111.057 97.188,103.838 Z M76.664,35.955 L76.664,17.873 C77.863,18.999 78.981,20.257 79.986,21.668 C83.345,26.351 84.956,32.805 85.656,38.291 C83.557,38.014 80.168,37.385 76.655,36.076 C76.655,36.035 76.664,35.996 76.664,35.955 Z M66.97,9.922 C66.97,9.881 66.978,9.85 66.98,9.812 C66.985,9.719 66.99,9.627 67.008,9.519 C67.01,9.503 67.009,9.487 67.012,9.472 C67.085,9.079 67.248,8.801 67.45,8.592 C67.73,8.315 68.115,8.132 68.681,8.128 C68.85,8.128 69.032,8.146 69.23,8.187 L70.099,8.373 L70.099,8.37 C71.662,8.646 73.165,10.5 73.102,11.984 L73.102,34.493 C73.039,34.46 72.977,34.428 72.914,34.395 C72.61,34.232 72.308,34.064 72.009,33.889 C71.922,33.838 71.837,33.785 71.75,33.733 C71.423,33.535 71.099,33.333 70.782,33.12 C70.725,33.082 70.671,33.041 70.615,33.003 C70.39,32.849 70.17,32.687 69.951,32.525 C69.847,32.448 69.74,32.378 69.638,32.299 C69.556,32.236 69.479,32.166 69.399,32.101 C69.12,31.88 68.843,31.657 68.577,31.421 C68.009,30.918 67.473,30.35 66.969,29.731 L66.969,9.922 L66.97,9.922 Z M63.407,10.488 L63.407,23.376 C62.6,21.343 61.974,19.222 61.505,17.213 C60.898,14.654 60.522,12.297 60.263,10.551 C60.212,10.212 60.167,9.905 60.124,9.613 C61.185,9.857 62.282,10.14 63.407,10.488 Z M44.108,6.195 C44.11,4.742 45.288,3.563 46.744,3.562 L53.542,3.562 C54.996,3.563 56.174,4.742 56.176,6.195 L56.176,7.427 L56.176,7.431 L56.176,29.574 C56.176,29.648 56.16,29.717 56.154,29.789 C56.061,30.912 55.274,31.828 54.216,32.11 C54.168,32.123 54.123,32.144 54.074,32.154 C54.01,32.167 53.942,32.166 53.876,32.174 C53.766,32.188 53.657,32.208 53.543,32.208 L46.745,32.208 C46.199,32.207 45.692,32.041 45.272,31.757 C44.571,31.284 44.11,30.484 44.109,29.573 L44.109,6.195 L44.108,6.195 Z M36.284,10.528 C37.59,10.121 38.861,9.796 40.077,9.526 C39.968,10.231 39.848,11.059 39.694,12.009 C39.16,15.497 38.153,20.407 36.284,24.682 L36.284,10.528 Z M26.59,11.984 C26.526,10.5 28.029,8.644 29.594,8.369 L30.457,8.187 L30.087,6.446 L30.466,8.185 C30.655,8.144 30.835,8.126 31.009,8.125 C31.576,8.13 31.96,8.313 32.239,8.591 C32.449,8.808 32.614,9.096 32.683,9.506 C32.684,9.516 32.683,9.525 32.685,9.535 C32.695,9.598 32.694,9.639 32.7,9.693 C32.707,9.769 32.72,9.838 32.72,9.922 L32.72,30.412 L32.719,30.413 C32.391,30.774 32.053,31.112 31.703,31.421 C31.615,31.5 31.519,31.569 31.429,31.646 C31.103,31.925 30.773,32.199 30.429,32.457 C30.234,32.603 30.031,32.738 29.831,32.878 C29.572,33.059 29.313,33.24 29.046,33.41 C28.833,33.546 28.615,33.675 28.398,33.805 C28.129,33.965 27.86,34.122 27.586,34.271 C27.372,34.389 27.156,34.503 26.939,34.614 C26.822,34.674 26.704,34.729 26.586,34.787 L26.59,11.984 Z M26.357,38.816 C26.552,38.733 26.746,38.652 26.941,38.566 C26.983,38.547 27.024,38.527 27.066,38.508 C27.202,38.446 27.338,38.384 27.474,38.32 C29.29,37.475 31.097,36.433 32.78,35.141 C32.783,35.139 32.787,35.136 32.79,35.133 C33.209,34.811 33.622,34.479 34.023,34.125 C34.038,34.112 34.054,34.101 34.068,34.088 C34.088,34.07 34.106,34.049 34.126,34.031 C34.473,33.72 34.801,33.395 35.116,33.061 C35.21,32.961 35.299,32.856 35.39,32.754 C35.549,32.578 35.713,32.405 35.865,32.225 C35.881,32.206 35.886,32.182 35.901,32.162 C37.99,29.656 39.467,26.647 40.545,23.61 L40.545,29.575 C40.546,31.369 41.313,32.98 42.531,34.111 C43.636,35.138 45.114,35.771 46.743,35.772 L53.541,35.772 C53.989,35.772 54.424,35.721 54.845,35.631 C57.64,35.03 59.735,32.55 59.737,29.575 L59.737,23.755 C60.714,26.422 62.001,29.067 63.738,31.363 C63.751,31.382 63.757,31.406 63.771,31.425 C63.811,31.477 63.857,31.525 63.897,31.577 C64.135,31.884 64.387,32.181 64.643,32.474 C64.767,32.616 64.886,32.762 65.014,32.901 C65.396,33.313 65.793,33.712 66.214,34.089 C66.715,34.528 67.234,34.935 67.76,35.327 C68.006,35.511 68.255,35.686 68.506,35.86 C68.808,36.068 69.112,36.267 69.419,36.462 C69.732,36.66 70.042,36.857 70.358,37.04 C70.81,37.303 71.265,37.553 71.723,37.789 C71.976,37.919 72.227,38.039 72.481,38.161 C72.858,38.343 73.234,38.516 73.611,38.682 C73.739,38.738 73.867,38.805 73.995,38.859 C74.019,38.869 74.045,38.873 74.07,38.881 C78.877,40.907 83.552,41.643 85.95,41.909 L86.075,47.544 L74.63,47.544 L74.63,44.9 C74.63,44.319 74.212,43.824 73.638,43.727 L64.79,42.253 C64.446,42.195 64.093,42.294 63.827,42.518 C63.561,42.743 63.408,43.076 63.408,43.426 L63.408,47.543 L36.876,47.543 L36.876,43.426 C36.876,43.075 36.723,42.742 36.458,42.518 C36.192,42.294 35.838,42.196 35.496,42.253 L26.646,43.727 C26.074,43.824 25.654,44.319 25.654,44.9 L25.654,47.544 L14.21,47.544 L14.335,41.909 C16.756,41.637 21.5,40.888 26.357,38.816 Z M72.257,45.903 L72.257,47.541 L65.782,47.541 L65.782,44.823 L72.257,45.903 Z M34.502,44.823 L34.502,47.541 L28.027,47.541 L28.027,45.903 L34.502,44.823 Z M19.835,21.668 C20.804,20.309 21.877,19.09 23.027,17.994 L23.027,35.955 C23.027,36.066 23.051,36.169 23.058,36.279 C21.794,36.728 20.55,37.101 19.386,37.388 C17.418,37.875 15.677,38.156 14.439,38.313 C14.341,38.326 14.251,38.336 14.16,38.347 C14.856,32.848 16.467,26.367 19.835,21.668 Z M8.27,56.39 L8.27,51.102 L92.014,51.102 L92.014,56.39 L8.27,56.39 Z M79.052,59.952 L76.019,62.976 L75.886,63.126 C75.649,63.478 74.536,64.193 72.861,64.741 C67.81,66.479 58.195,67.383 50.328,67.37 C50.243,67.371 50.181,67.371 50.141,67.371 L50.141,67.372 C50.104,67.371 50.072,67.371 50.043,67.371 L49.956,67.371 C44.698,67.371 38.698,66.988 33.76,66.2 C31.294,65.807 29.093,65.311 27.42,64.741 C25.747,64.193 24.634,63.477 24.397,63.126 L24.263,62.976 L21.231,59.952 L79.052,59.952 Z M20.257,76.8 C16.852,72.053 15.256,65.473 14.583,59.952 L16.19,59.952 L21.7,65.451 C22.804,66.722 24.364,67.441 26.275,68.114 C32.13,70.088 41.794,70.92 49.957,70.931 L50.328,70.931 C55.756,70.93 61.888,70.542 67.082,69.716 C69.682,69.301 72.045,68.778 74.008,68.112 C75.912,67.442 77.468,66.725 78.571,65.462 L84.094,59.951 L85.702,59.951 C85.03,65.472 83.432,72.052 80.028,76.799 C75.527,83.126 68.687,86.464 62.608,88.192 C56.544,89.921 51.319,90.016 50.343,90.014 L50.303,90.014 L50.172,90.014 L49.943,90.014 C49.456,90.015 47.919,89.991 45.752,89.755 C45.725,89.752 45.699,89.749 45.672,89.746 C45.495,89.726 45.31,89.704 45.125,89.682 C44.985,89.664 44.847,89.648 44.703,89.629 C44.677,89.626 44.65,89.622 44.623,89.618 C41.899,89.254 38.428,88.566 34.847,87.277 C34.842,87.276 34.838,87.274 34.833,87.272 C34.52,87.159 34.207,87.042 33.893,86.92 C33.834,86.897 33.774,86.873 33.715,86.849 C33.437,86.739 33.159,86.628 32.881,86.511 C32.66,86.418 32.439,86.319 32.219,86.221 C32.022,86.134 31.826,86.045 31.63,85.953 C31.34,85.818 31.05,85.68 30.761,85.535 C30.669,85.489 30.577,85.44 30.486,85.393 C30.204,85.249 29.922,85.101 29.642,84.948 C29.55,84.898 29.459,84.847 29.369,84.796 C29.09,84.64 28.812,84.479 28.536,84.314 C28.445,84.259 28.353,84.205 28.262,84.149 C27.994,83.984 27.728,83.814 27.463,83.64 C27.364,83.575 27.265,83.512 27.167,83.446 C26.938,83.292 26.711,83.13 26.485,82.968 C26.057,82.661 25.632,82.345 25.218,82.011 C25.213,82.007 25.207,82.005 25.202,82.001 C23.382,80.543 21.698,78.827 20.257,76.8 Z M70.044,113.398 L70.044,89.358 C71.704,88.603 73.364,87.712 74.98,86.661 C75.581,86.27 76.177,85.861 76.763,85.424 C76.882,85.48 76.992,85.541 77.109,85.598 L77.109,121.651 L70.046,121.651 L70.046,113.4 C70.045,113.399 70.044,113.399 70.044,113.398 Z M67.671,90.352 L67.671,112.213 L33.15,112.213 L33.15,90.449 C33.163,90.453 33.175,90.458 33.189,90.463 C33.301,90.505 33.412,90.544 33.524,90.585 C33.826,90.695 34.128,90.804 34.428,90.906 C34.754,91.017 35.078,91.124 35.4,91.227 C35.486,91.254 35.57,91.279 35.656,91.305 C35.98,91.406 36.302,91.502 36.621,91.594 C36.648,91.602 36.676,91.611 36.703,91.618 C36.739,91.628 36.773,91.637 36.809,91.647 C37.253,91.772 37.692,91.891 38.124,92.001 C38.179,92.015 38.235,92.03 38.29,92.044 C38.695,92.145 39.093,92.237 39.486,92.325 C40.514,92.555 41.498,92.742 42.426,92.895 C42.43,92.895 42.434,92.896 42.438,92.897 C42.761,92.95 43.077,92.999 43.386,93.044 C43.421,93.049 43.456,93.055 43.49,93.06 C43.752,93.098 44.009,93.133 44.26,93.165 C47.012,93.523 49.035,93.571 49.817,93.577 C49.859,93.577 49.905,93.578 49.939,93.579 C50.015,93.578 50.067,93.579 50.098,93.578 L50.63,93.578 C52.008,93.556 59.551,93.459 67.671,90.352 Z M30.775,89.476 L30.775,121.652 L23.711,121.652 L23.711,85.55 C23.765,85.524 23.815,85.496 23.868,85.47 C26.084,87.123 28.433,88.433 30.775,89.476 Z M4.239,123.715 C4.235,118.007 4.75,110.302 7.585,103.089 C8.617,100.475 9.937,97.928 11.644,95.547 C14.027,92.224 17.175,89.228 21.337,86.814 L21.337,112.213 L16.626,112.213 C16.312,112.213 16.007,112.34 15.786,112.561 C15.565,112.783 15.438,113.087 15.438,113.401 L15.438,127.755 L4.24,127.755 L4.24,123.715 L4.239,123.715 Z M96.476,148.184 L4.239,148.184 L4.239,130.129 L16.625,130.129 C16.942,130.129 17.239,130.004 17.463,129.781 C17.688,129.555 17.811,129.259 17.811,128.942 L17.811,114.587 L21.336,114.587 L21.336,122.839 C21.336,123.019 21.385,123.187 21.46,123.345 C21.518,123.465 21.586,123.581 21.684,123.679 C21.716,123.711 21.759,123.724 21.794,123.752 C22.003,123.919 22.252,124.026 22.524,124.026 L31.961,124.026 C32.229,124.026 32.474,123.921 32.682,123.757 C32.72,123.728 32.766,123.713 32.801,123.678 C32.913,123.565 33,123.434 33.059,123.292 C33.118,123.15 33.149,122.996 33.149,122.838 L33.149,114.583 L67.67,114.583 L67.67,122.838 C67.67,123.154 67.793,123.452 68.017,123.677 L68.017,123.677 L68.017,123.677 C68.032,123.692 68.052,123.697 68.067,123.71 C68.286,123.908 68.56,124.024 68.856,124.024 L78.294,124.024 C78.543,124.024 78.768,123.929 78.966,123.788 C79.022,123.749 79.085,123.725 79.134,123.677 C79.359,123.451 79.482,123.154 79.482,122.837 L79.482,114.585 L83.007,114.585 L83.007,128.94 C83.007,129.256 83.131,129.553 83.355,129.779 C83.579,130.002 83.876,130.127 84.192,130.127 L96.474,130.127 L96.474,148.184 L96.476,148.184 Z M96.476,127.754 L85.383,127.754 L85.383,113.4 C85.383,113.087 85.256,112.782 85.035,112.56 C84.813,112.339 84.508,112.212 84.194,112.212 L79.482,112.212 L79.482,86.865 C79.983,87.157 80.469,87.458 80.94,87.767 C86.458,91.387 89.997,96.111 92.32,101.192 C92.602,101.808 92.872,102.428 93.12,103.053 C95.965,110.276 96.479,117.997 96.475,123.714 L96.475,127.754 L96.476,127.754 Z"/>
</svg>
