<svg xmlns="http://www.w3.org/2000/svg" width="32" height="32" viewBox="0 0 32 32">
  <g fill="#FFFFFF">
    <path d="M31,0 L17,0 C16.448,0 16,0.448 16,1 C16,1.552 16.448,2 17,2 L30,2 L30,30 L17,30 C16.448,30 16,30.448 16,31 C16,31.552 16.448,32 17,32 L31,32 C31.552,32 32,31.552 32,31 L32,1 C32,0.448 31.552,0 31,0 Z"/>
    <path d="M16.393,22.3 C16.002,22.695 16.002,23.334 16.393,23.728 C16.784,24.123 17.417,24.123 17.807,23.728 L24.706,16.729 C25.091,16.34 25.095,15.689 24.706,15.3 L17.806,8.301 C17.415,7.906 16.782,7.907 16.392,8.301 C16.001,8.695 16.001,9.335 16.392,9.729 L21.592,15.004 L1,15.004 C0.448,15.004 0,15.456 0,16.014 C0,16.572 0.448,17.024 1,17.024 L21.593,17.024 L16.393,22.3 Z"/>
  </g>
</svg>
