<svg xmlns="http://www.w3.org/2000/svg" width="237" height="237" viewBox="0 0 237 237">
  <path fill="#FFFFFF" d="M421.707,375.658 C356.445,375.658 303.536,428.567 303.536,493.829 C303.536,559.091 356.444,612 421.707,612 C486.97,612 539.879,559.091 539.879,493.829 C539.878,428.566 486.969,375.658 421.707,375.658 Z M473.407,514.103 L441.982,514.103 L441.982,545.527 C441.982,556.725 432.905,565.803 421.708,565.803 C410.51,565.803 401.432,556.725 401.432,545.527 L401.432,514.103 L370.008,514.103 C358.81,514.103 349.732,505.026 349.732,493.827 C349.732,482.629 358.809,473.551 370.008,473.551 L401.432,473.551 L401.432,442.127 C401.432,430.929 410.51,421.851 421.708,421.851 C432.906,421.851 441.982,430.929 441.982,442.127 L441.982,473.551 L473.407,473.551 C484.605,473.551 493.683,482.629 493.683,493.827 C493.682,505.027 484.606,514.103 473.407,514.103 Z" transform="translate(-303 -375)"/>
</svg>
